<?xml version="1.0" encoding="UTF-8"?>
<!DOCTYPE svg PUBLIC "-//W3C//DTD SVG 1.1//EN" "http://www.w3.org/Graphics/SVG/1.1/DTD/svg11.dtd">
<!-- Creator: CorelDRAW -->
<svg xmlns="http://www.w3.org/2000/svg" xml:space="preserve" width="300px" height="289px" version="1.1" style="shape-rendering:geometricPrecision; text-rendering:geometricPrecision; image-rendering:optimizeQuality; fill-rule:evenodd; clip-rule:evenodd"
viewBox="0 0 302.79 291.97"
 xmlns:xlink="http://www.w3.org/1999/xlink"
 xmlns:xodm="http://www.corel.com/coreldraw/odm/2003">
 <defs>
  <style type="text/css">
   <![CDATA[
    .str0 {stroke:#524948;stroke-width:0.09;stroke-miterlimit:2.613}
    .fil2 {fill:none}
    .fil24 {fill:#FEFEFE}
    .fil1 {fill:#252626}
    .fil15 {fill:#3F4E61}
    .fil25 {fill:#FEFEFE;fill-rule:nonzero}
    .fil4 {fill:url(#id0)}
    .fil0 {fill:url(#id1)}
    .fil19 {fill:url(#id2)}
    .fil22 {fill:url(#id3)}
    .fil8 {fill:url(#id4)}
    .fil12 {fill:url(#id5)}
    .fil10 {fill:url(#id6)}
    .fil21 {fill:url(#id7)}
    .fil7 {fill:url(#id8)}
    .fil17 {fill:url(#id9)}
    .fil11 {fill:url(#id10)}
    .fil14 {fill:url(#id11)}
    .fil23 {fill:url(#id12)}
    .fil5 {fill:url(#id13)}
    .fil18 {fill:url(#id14)}
    .fil6 {fill:url(#id15)}
    .fil20 {fill:url(#id16)}
    .fil9 {fill:url(#id17)}
    .fil16 {fill:url(#id18)}
    .fil13 {fill:url(#id19)}
    .fil3 {fill:url(#id20)}
   ]]>
  </style>
  <linearGradient id="id0" gradientUnits="userSpaceOnUse" x1="151.39" y1="286.3" x2="151.39" y2="5.08">
   <stop offset="0" style="stop-opacity:1; stop-color:#CE9E3E"/>
   <stop offset="0.121569" style="stop-opacity:1; stop-color:#B25329"/>
   <stop offset="0.4" style="stop-opacity:1; stop-color:#FAF3B6"/>
   <stop offset="0.670588" style="stop-opacity:1; stop-color:#E3B33B"/>
   <stop offset="0.85098" style="stop-opacity:1; stop-color:#D29022"/>
   <stop offset="1" style="stop-opacity:1; stop-color:#BB5529"/>
  </linearGradient>
  <linearGradient id="id1" gradientUnits="userSpaceOnUse" x1="52.51" y1="102.59" x2="249.73" y2="188.07">
   <stop offset="0" style="stop-opacity:1; stop-color:#FCEEA7"/>
   <stop offset="0.258824" style="stop-opacity:1; stop-color:#C35329"/>
   <stop offset="0.509804" style="stop-opacity:1; stop-color:#FCEEAC"/>
   <stop offset="0.729412" style="stop-opacity:1; stop-color:#B96D29"/>
   <stop offset="1" style="stop-opacity:1; stop-color:#FCEFAD"/>
  </linearGradient>
  <linearGradient id="id2" gradientUnits="userSpaceOnUse" x1="114.12" y1="182.51" x2="138.43" y2="175.36">
   <stop offset="0" style="stop-opacity:1; stop-color:#426479"/>
   <stop offset="0.65098" style="stop-opacity:1; stop-color:#CBD1DA"/>
   <stop offset="1" style="stop-opacity:1; stop-color:#FEFEFE"/>
  </linearGradient>
  <linearGradient id="id3" gradientUnits="userSpaceOnUse" x1="97.92" y1="206.05" x2="130.32" y2="165.38">
   <stop offset="0" style="stop-opacity:1; stop-color:#FBD20B"/>
   <stop offset="1" style="stop-opacity:1; stop-color:#F1BB28"/>
  </linearGradient>
  <linearGradient id="id4" gradientUnits="userSpaceOnUse" xlink:href="#id3" x1="83.79" y1="103.06" x2="90.78" y2="94.72">
  </linearGradient>
  <linearGradient id="id5" gradientUnits="userSpaceOnUse" xlink:href="#id3" x1="163.98" y1="159.05" x2="154.12" y2="169.63">
  </linearGradient>
  <linearGradient id="id6" gradientUnits="userSpaceOnUse" x1="117.92" y1="126.81" x2="106.05" y2="116.35">
   <stop offset="0" style="stop-opacity:1; stop-color:#FBD20B"/>
   <stop offset="1" style="stop-opacity:1; stop-color:#C77F2E"/>
  </linearGradient>
  <linearGradient id="id7" gradientUnits="userSpaceOnUse" xlink:href="#id3" x1="94.33" y1="182.33" x2="118.87" y2="191.9">
  </linearGradient>
  <linearGradient id="id8" gradientUnits="userSpaceOnUse" x1="92.87" y1="117.3" x2="130.06" y2="208.95">
   <stop offset="0" style="stop-opacity:1; stop-color:#FBD20B"/>
   <stop offset="1" style="stop-opacity:1; stop-color:#FEFEFE"/>
  </linearGradient>
  <linearGradient id="id9" gradientUnits="userSpaceOnUse" xlink:href="#id2" x1="172.57" y1="135.87" x2="145.88" y2="123.17">
  </linearGradient>
  <linearGradient id="id10" gradientUnits="userSpaceOnUse" xlink:href="#id8" x1="180.13" y1="202.67" x2="144.94" y2="100.04">
  </linearGradient>
  <linearGradient id="id11" gradientUnits="userSpaceOnUse" x1="114.43" y1="129.2" x2="95.4" y2="84.65">
   <stop offset="0" style="stop-opacity:1; stop-color:#8297AC"/>
   <stop offset="0.360784" style="stop-opacity:1; stop-color:#CBD1DA"/>
   <stop offset="1" style="stop-opacity:1; stop-color:#FEFEFE"/>
  </linearGradient>
  <linearGradient id="id12" gradientUnits="userSpaceOnUse" xlink:href="#id8" x1="160.9" y1="194.35" x2="93.83" y2="187.98">
  </linearGradient>
  <linearGradient id="id13" gradientUnits="userSpaceOnUse" xlink:href="#id3" x1="85" y1="125.65" x2="82.15" y2="149.92">
  </linearGradient>
  <linearGradient id="id14" gradientUnits="userSpaceOnUse" x1="153.34" y1="121.07" x2="174.52" y2="137.74">
   <stop offset="0" style="stop-opacity:1; stop-color:#D1D7DB"/>
   <stop offset="1" style="stop-opacity:1; stop-color:#FEFEFE"/>
  </linearGradient>
  <linearGradient id="id15" gradientUnits="userSpaceOnUse" xlink:href="#id3" x1="89.96" y1="96.07" x2="56.24" y2="149.98">
  </linearGradient>
  <linearGradient id="id16" gradientUnits="userSpaceOnUse" xlink:href="#id8" x1="67.55" y1="257.58" x2="156.69" y2="108.26">
  </linearGradient>
  <linearGradient id="id17" gradientUnits="userSpaceOnUse" xlink:href="#id3" x1="158.38" y1="163.91" x2="166.5" y2="136.15">
  </linearGradient>
  <linearGradient id="id18" gradientUnits="userSpaceOnUse" x1="93.21" y1="99.24" x2="109.25" y2="113.28">
   <stop offset="0" style="stop-opacity:1; stop-color:#F6E9B1"/>
   <stop offset="0.65098" style="stop-opacity:1; stop-color:#FFD500"/>
   <stop offset="1" style="stop-opacity:1; stop-color:#FEFEFE"/>
  </linearGradient>
  <linearGradient id="id19" gradientUnits="userSpaceOnUse" x1="95.32" y1="96.83" x2="119.61" y2="116.28">
   <stop offset="0" style="stop-opacity:1; stop-color:#FFD500"/>
   <stop offset="0.65098" style="stop-opacity:1; stop-color:#F7E272"/>
   <stop offset="1" style="stop-opacity:1; stop-color:#FFDD09"/>
  </linearGradient>
  <radialGradient id="id20" gradientUnits="userSpaceOnUse" gradientTransform="matrix(1.2613 -0 -0 -1.2613 -40 332)" cx="151.39" cy="146.65" r="127.2" fx="151.39" fy="146.65">
   <stop offset="0" style="stop-opacity:1; stop-color:#005AA2"/>
   <stop offset="1" style="stop-opacity:1; stop-color:#262727"/>
  </radialGradient>
 </defs>
 <g id="Слой_x0020_1">
  <metadata id="CorelCorpID_0Corel-Layer"/>
  <path class="fil0" d="M114.54 12.62c11.94,3.48 26.29,-0.69 33.94,-10.6 -2.98,-1.39 -6.2,-2.02 -9.46,-2.02 -9.4,0 -19.14,5.24 -24.48,12.62zm40.54 -10.33c7.48,9.69 21.5,13.75 33.16,10.36 -5.21,-7.21 -14.73,-12.33 -23.92,-12.33 -3.18,0 -6.33,0.61 -9.24,1.97zm32.91 0.03c5.78,15.84 22.5,27.03 39.24,27.44 -4.82,-14.58 -19.84,-27.67 -35.64,-27.67 -1.2,0 -2.4,0.07 -3.6,0.23zm-112.43 27.44c16.73,-0.41 33.46,-11.6 39.24,-27.44 -1.2,-0.16 -2.4,-0.23 -3.6,-0.23 -15.8,0 -30.83,13.09 -35.64,27.67zm68.44 -14.91c2.11,-0.12 4.24,-0.19 6.37,-0.21l0 -0.01c-2.13,0.02 -4.26,0.09 -6.37,0.22zm10.38 -0.19c0.94,0.02 1.88,0.05 2.82,0.09 -0.94,-0.05 -1.88,-0.08 -2.82,-0.1l0 0.01zm70.41 23.38c33.09,23.11 54.75,61.48 54.75,104.91 0,70.64 -57.26,127.9 -127.89,127.9 -70.63,0 -127.89,-57.26 -127.89,-127.9 0,-43.43 21.65,-81.8 54.75,-104.91 18.67,-13.35 41.15,-21.73 65.49,-23.19 -69.44,3.96 -124.53,61.52 -124.53,131.95 0,73 59.18,132.17 132.18,132.17 73,0 132.17,-59.17 132.17,-132.17 0,-71.14 -56.2,-129.14 -126.62,-132.05 25.15,1.09 48.38,9.55 67.59,23.29zm34.29 20.23c-0.19,-16.51 -12.16,-34.96 -29.09,-38.02 0.71,16.84 13.26,32.57 29.09,38.02zm-215.38 0c15.83,-5.45 28.38,-21.18 29.1,-38.02 -16.93,3.06 -28.91,21.51 -29.1,38.02zm110.1 -37.71c3.52,9.11 13.34,15.41 23.04,15.47 -2.91,-8.3 -11.6,-15.65 -20.64,-15.65 -0.8,0 -1.6,0.06 -2.4,0.18zm-27.2 15.47c9.7,-0.06 19.52,-6.36 23.04,-15.47 -0.8,-0.12 -1.6,-0.18 -2.4,-0.18 -9.04,0 -17.72,7.35 -20.64,15.65zm47.71 -12.22c4.72,12.2 17.85,20.63 30.83,20.7 -3.9,-11.1 -15.52,-20.93 -27.62,-20.93 -1.07,0 -2.14,0.07 -3.21,0.23zm-74.83 20.7c12.98,-0.07 26.11,-8.5 30.83,-20.7 -1.07,-0.16 -2.14,-0.23 -3.21,-0.23 -12.1,0 -23.72,9.83 -27.62,20.93zm128.51 15.78c-1.17,-12.75 -11.57,-26.26 -24.85,-27.58 1.6,12.98 12.28,24.35 24.85,27.58zm-151.36 0c12.57,-3.23 23.25,-14.6 24.85,-27.58 -13.28,1.32 -23.68,14.83 -24.85,27.58zm169.68 20.88c1.97,-12.66 -4.82,-28.3 -17.38,-32.81 -1.61,12.97 5.97,26.61 17.38,32.81zm-188 0c11.41,-6.2 18.99,-19.84 17.38,-32.81 -12.56,4.51 -19.35,20.15 -17.38,32.81zm222.5 13.92c4.82,-15.8 -1.01,-37 -16.22,-45.05 -4.42,16.28 2.78,35.07 16.22,45.05zm-258.84 0c13.44,-9.98 20.65,-28.77 16.23,-45.05 -15.21,8.05 -21.04,29.25 -16.23,45.05zm237.01 10.79c5,-11.79 2.22,-28.62 -8.85,-36.06 -4.73,12.19 -0.7,27.27 8.85,36.06zm-213.35 0c9.56,-8.79 13.59,-23.87 8.86,-36.06 -11.07,7.44 -13.85,24.27 -8.86,36.06zm244.75 30.87c9.37,-13.59 10.23,-35.57 -1.83,-47.84 -9.14,14.18 -7.96,34.26 1.83,47.84zm-277.97 0c9.78,-13.58 10.96,-33.66 1.83,-47.84 -12.06,12.27 -11.2,34.25 -1.83,47.84zm252.85 -3.82c7.72,-10.22 9.13,-27.21 0.2,-37.13 -7.56,10.68 -7.32,26.28 -0.2,37.13zm-225.9 0c7.12,-10.85 7.36,-26.45 -0.2,-37.13 -8.93,9.92 -7.52,26.91 0.2,37.13zm225.39 27.77c9.98,-8.03 15.49,-24.17 9.24,-35.96 -9.93,8.5 -13.5,23.7 -9.24,35.96zm-224.88 0c4.26,-12.26 0.69,-27.46 -9.24,-35.96 -6.25,11.79 -0.74,27.93 9.24,35.96zm247.02 18.66c13.05,-10.12 20.52,-30.8 12.73,-46.15 -12.99,10.74 -17.95,30.25 -12.73,46.15zm-270.99 0c5.21,-15.9 0.26,-35.41 -12.74,-46.15 -7.78,15.35 -0.31,36.03 12.74,46.15zm241.59 8.14c11.64,-5.35 20.91,-19.67 17.73,-32.62 -11.71,5.83 -18.87,19.69 -17.73,32.62zm-210.37 0c1.15,-12.93 -6.01,-26.79 -17.72,-32.62 -3.18,12.95 6.09,27.27 17.72,32.62zm223.55 31.42c15.5,-5.7 28.88,-23.16 26.1,-40.14 -15.64,6.31 -26.26,23.4 -26.1,40.14zm-238.55 0c0.15,-16.74 -10.47,-33.83 -26.11,-40.14 -2.77,16.98 10.61,34.44 26.11,40.14zm211.8 -7.19c12.59,-2.36 25.07,-13.98 25.14,-27.32 -12.77,2.8 -23.1,14.5 -25.14,27.32zm-183.22 0c-2.04,-12.82 -12.37,-24.52 -25.14,-27.32 0.07,13.34 12.55,24.96 25.14,27.32zm164.16 20.2c12.78,0.77 27.72,-7.46 31.04,-20.38 -0.28,-0.01 -0.56,-0.01 -0.84,-0.01 -12.78,0 -25.21,8.7 -30.2,20.39zm-176.14 -20.38c3.32,12.92 18.26,21.15 31.04,20.38 -4.99,-11.69 -17.42,-20.39 -30.2,-20.39 -0.28,0 -0.56,0 -0.84,0.01zm194.52 40.16c16.5,-0.75 34.53,-13.33 37.03,-30.36 -16.82,1.28 -32.11,14.36 -37.03,30.36zm-183.69 0c-4.92,-16 -20.22,-29.08 -37.03,-30.36 2.5,17.03 20.53,29.61 37.03,30.36zm141.89 -4.85c12.21,3.87 28.71,-0.47 35.07,-12.2 -2.61,-0.74 -5.32,-1.09 -8.03,-1.09 -10.34,0 -20.81,5.11 -27.04,13.29zm-133.33 -12.2c6.36,11.73 22.86,16.07 35.07,12.2 -6.23,-8.18 -16.7,-13.29 -27.04,-13.29 -2.71,0 -5.42,0.35 -8.03,1.09zm105.13 21.34c10.78,6.91 27.83,7.01 37.03,-2.66 -4.83,-2.89 -10.46,-4.27 -16.13,-4.27 -7.5,0 -15.06,2.41 -20.9,6.93zm-78.89 -2.66c9.2,9.67 26.25,9.57 37.03,2.66 -5.85,-4.52 -13.4,-6.93 -20.9,-6.93 -5.66,0 -11.3,1.38 -16.13,4.27zm112.82 21.32c15.95,4.28 36.95,-2.25 44.48,-17.73 -2.83,-0.66 -5.73,-0.98 -8.64,-0.98 -13.91,0 -27.96,7.32 -35.84,18.71zm-156.03 -17.73c7.53,15.48 28.52,22.01 44.47,17.73 -7.88,-11.39 -21.93,-18.71 -35.84,-18.71 -2.9,0 -5.8,0.31 -8.63,0.98zm114.71 28.69c13.9,8.91 35.9,9.03 47.76,-3.43 -6.23,-3.73 -13.5,-5.51 -20.81,-5.51 -9.66,0 -19.41,3.11 -26.95,8.94zm-76.67 -3.43c11.86,12.46 33.85,12.34 47.76,3.43 -7.55,-5.83 -17.29,-8.94 -26.96,-8.94 -7.31,0 -14.57,1.78 -20.8,5.51z"/>
  <path class="fil1" d="M147.26 12.26l5.13 0c25.39,20.04 59.06,25.71 101.03,17.02l0 148.53c0,11.43 -5.12,23.77 -15.24,36.71 -8.98,11.44 -21.69,23.15 -37.77,34.82 -20.08,14.52 -40.56,25.32 -50.49,30.25 -9.96,-4.93 -30.42,-15.73 -50.51,-30.25 -16.08,-11.67 -28.78,-23.38 -37.75,-34.82 -10.14,-12.95 -15.27,-25.28 -15.27,-36.71l0 -148.53c37.93,10.4 71.55,4.72 100.87,-17.02z"/>
  <path class="fil2 str0" d="M147.26 12.26l5.13 0c25.39,20.04 59.06,25.71 101.03,17.02l0 148.53c0,11.43 -5.12,23.77 -15.24,36.71 -8.98,11.44 -21.69,23.15 -37.77,34.82 -20.08,14.52 -40.56,25.32 -50.49,30.25 -9.96,-4.93 -30.42,-15.73 -50.51,-30.25 -16.08,-11.67 -28.78,-23.38 -37.75,-34.82 -10.14,-12.95 -15.27,-25.28 -15.27,-36.71l0 -148.53c37.93,10.4 71.55,4.72 100.87,-17.02z"/>
  <path class="fil3" d="M249.17 177.71l0 -140.28c-0.71,0.14 -1.4,0.28 -2.1,0.42l0 152.55c1.39,-4.34 2.1,-8.58 2.1,-12.69zm-100 -156.56l0 251.58c0.79,0.4 1.54,0.77 2.23,1.11 0.58,-0.28 1.19,-0.59 1.84,-0.91l0 -251.98c-0.62,-0.49 -1.23,-0.99 -1.84,-1.5 -0.74,0.58 -1.48,1.14 -2.23,1.7zm5.15 251.23c1.25,-0.64 2.61,-1.34 4.07,-2.1l0 -245.49c-1.38,-0.96 -2.74,-1.95 -4.07,-2.98l0 250.57zm-10.31 -247.6l0 245.29c1.46,0.76 2.82,1.47 4.07,2.11l0 -250.23c-1.34,0.98 -2.7,1.93 -4.07,2.83zm-5.15 3.24l0 239.28c1.42,0.78 2.78,1.51 4.07,2.2l0 -244c-1.35,0.88 -2.7,1.72 -4.07,2.52zm20.61 241.68c1.29,-0.68 2.65,-1.41 4.07,-2.18l0 -239.44c-1.38,-0.82 -2.73,-1.67 -4.07,-2.56l0 244.18zm-25.76 -238.82l0 233.55c1.4,0.8 2.75,1.55 4.07,2.28l0 -238.05c-1.35,0.77 -2.71,1.51 -4.07,2.22zm30.92 236.04c1.31,-0.72 2.66,-1.48 4.06,-2.27l0 -233.76c-1.37,-0.69 -2.73,-1.42 -4.06,-2.18l0 238.21zm5.15 -2.89c1.32,-0.75 2.68,-1.54 4.07,-2.35l0 -228.39c-1.38,-0.59 -2.73,-1.21 -4.07,-1.86l0 232.6zm-41.22 -230.65l0 228.07c1.38,0.82 2.74,1.6 4.06,2.36l0 -232.37c-1.34,0.68 -2.7,1.32 -4.06,1.94zm46.37 227.66c1.33,-0.79 2.69,-1.61 4.07,-2.45l0 -223.3c-1.37,-0.49 -2.73,-1 -4.07,-1.55l0 227.3zm-51.53 -225.51l0 222.82c1.38,0.85 2.74,1.67 4.07,2.46l0 -226.95c-1.35,0.59 -2.7,1.15 -4.07,1.67zm56.68 222.4c1.34,-0.83 2.7,-1.68 4.07,-2.55l0 -218.43c-1.37,-0.4 -2.73,-0.82 -4.07,-1.28l0 222.26zm-61.83 -220.57l0 217.78c1.37,0.87 2.73,1.72 4.07,2.55l0 -221.74c-1.35,0.5 -2.71,0.97 -4.07,1.41zm66.99 217.33c1.34,-0.86 2.7,-1.75 4.06,-2.65l0 -213.73c-1.37,-0.32 -2.72,-0.67 -4.06,-1.04l0 217.42zm-131.62 -76.98c0,3.71 0.57,7.53 1.71,11.43l0 -151.25c-0.57,-0.15 -1.14,-0.3 -1.71,-0.46l0 140.28zm59.48 -138.84l0 212.91c1.36,0.91 2.72,1.79 4.07,2.66l0 -216.74c-1.35,0.42 -2.71,0.81 -4.07,1.17zm128.82 -0.08l0 163.07c1.63,-2.84 2.98,-5.65 4.06,-8.41l0 -155.39c-1.36,0.26 -2.72,0.51 -4.06,0.73zm-185.5 153.63c1.06,2.87 2.41,5.78 4.07,8.74l0 -162.02c-1.35,-0.3 -2.71,-0.63 -4.07,-0.97l0 154.25zm133.97 58.9c1.35,-0.9 2.71,-1.83 4.07,-2.77l0 -209.18c-1.37,-0.25 -2.73,-0.52 -4.07,-0.82l0 212.77zm46.37 -211.73l0 170.16c1.49,-2.04 2.85,-4.06 4.07,-6.06l0 -164.72c-1.36,0.22 -2.72,0.43 -4.07,0.62zm-128.81 0.5l0 208.19c1.35,0.95 2.71,1.87 4.06,2.78l0 -211.91c-1.34,0.34 -2.7,0.65 -4.06,0.94zm-46.38 162.94c1.22,2.04 2.58,4.09 4.07,6.16l0 -169.01c-1.35,-0.25 -2.71,-0.52 -4.07,-0.81l0 163.66zm133.97 44.77c1.18,-0.83 2.37,-1.67 3.55,-2.53l0.52 -0.37 0 -204.74c-1.37,-0.18 -2.73,-0.38 -4.07,-0.6l0 208.24zm36.07 -207.57l0 176c1.1,-1.29 2.15,-2.57 3.16,-3.85 0.31,-0.39 0.61,-0.78 0.91,-1.18l0 -171.46c-1.37,0.18 -2.72,0.34 -4.07,0.49zm-30.92 203.87c1.39,-1.02 2.74,-2.04 4.07,-3.06l0 -200.33c-1.37,-0.11 -2.72,-0.25 -4.07,-0.41l0 203.8zm-97.9 -203.08l0 203.59 0.91 0.66c1.05,0.76 2.11,1.51 3.16,2.25l0 -207.21c-1.35,0.26 -2.7,0.5 -4.07,0.71zm123.67 -0.31l0 181.18c1.42,-1.47 2.77,-2.95 4.07,-4.41l0 -177.13c-1.37,0.14 -2.73,0.26 -4.07,0.36zm-159.74 169.96c0.43,0.57 0.87,1.14 1.32,1.71 0.88,1.12 1.8,2.25 2.75,3.37l0 -174.73c-1.35,-0.19 -2.7,-0.41 -4.07,-0.65l0 170.3zm154.59 -169.65l0 185.99c1.4,-1.34 2.76,-2.67 4.06,-4l0 -182.22c-1.36,0.1 -2.72,0.17 -4.06,0.23zm-15.46 199.19c1.38,-1.08 2.74,-2.16 4.07,-3.23l0 -195.94c-1.37,-0.06 -2.73,-0.14 -4.07,-0.24l0 199.41zm10.3 -199.06l0 190.56c1.4,-1.23 2.76,-2.45 4.07,-3.68l0 -186.97c-1.37,0.05 -2.72,0.08 -4.07,0.09zm-5.15 194.94c1.39,-1.14 2.75,-2.29 4.07,-3.43l0 -191.51c-1.37,0 -2.73,-0.03 -4.07,-0.07l0 195.01zm-139.12 -19.07c1.29,1.48 2.64,2.97 4.06,4.46l0 -179.85c-1.34,-0.13 -2.7,-0.29 -4.06,-0.47l0 175.86zm25.76 -175.35l0 199.07c1.33,1.03 2.69,2.05 4.07,3.07l0 -202.64c-1.35,0.2 -2.71,0.36 -4.07,0.5zm-20.61 180.93c1.3,1.34 2.66,2.69 4.07,4.03l0 -184.6c-1.35,-0.08 -2.71,-0.17 -4.07,-0.29l0 180.86zm15.46 -180.54l0 194.6c1.32,1.08 2.68,2.16 4.06,3.24l0 -198.13c-1.34,0.13 -2.7,0.22 -4.06,0.29zm-10.31 185.6c1.32,1.23 2.67,2.47 4.07,3.71l0 -189.18c-1.35,-0.01 -2.71,-0.05 -4.07,-0.11l0 185.58zm5.15 -185.47l0 190.13c1.33,1.15 2.68,2.3 4.07,3.45l0 -193.66c-1.35,0.05 -2.7,0.08 -4.07,0.08z"/>
  <path class="fil4" d="M150.42 6.07l-0.95 0.74 -4.93 3.85c-3.18,2.49 -6.42,4.75 -9.72,6.78 -3.27,2.02 -6.62,3.82 -10.04,5.4 -3.42,1.58 -6.87,2.93 -10.36,4.04 -3.49,1.11 -7.06,2.01 -10.68,2.67 -3.64,0.67 -7.36,1.12 -11.15,1.33 -3.79,0.22 -7.65,0.21 -11.58,-0.03 -3.92,-0.23 -7.93,-0.7 -12.02,-1.4 -4.11,-0.7 -8.26,-1.62 -12.44,-2.77l-9.75 -2.67 -1.87 -0.51 -2.5 -0.69 0 2.59 0 1.94 0 10.09 0 140.28c0,1.69 0.1,3.42 0.29,5.19 0.19,1.75 0.47,3.51 0.85,5.26 0.38,1.77 0.85,3.54 1.4,5.29 0.55,1.76 1.21,3.54 1.96,5.34 0.7,1.7 1.49,3.39 2.34,5.07 0.87,1.69 1.82,3.4 2.85,5.11 1,1.66 2.11,3.36 3.32,5.1 1.16,1.69 2.42,3.39 3.76,5.11l0.06 0.1c1.21,1.54 2.41,3.01 3.61,4.4l0.01 0c1.22,1.42 2.55,2.89 3.98,4.42 1.44,1.55 2.89,3.03 4.32,4.46 1.52,1.5 3.06,2.97 4.62,4.41 1.54,1.42 3.17,2.87 4.88,4.35 1.68,1.45 3.42,2.9 5.21,4.36 1.82,1.48 3.66,2.94 5.52,4.36 1.9,1.46 3.81,2.89 5.74,4.28l0.14 0.07c1.87,1.35 3.7,2.64 5.48,3.87 1.88,1.29 3.8,2.58 5.74,3.86l0 0c1.78,1.17 3.79,2.45 5.95,3.81 2.2,1.38 4.27,2.64 6.2,3.8 2.34,1.4 4.46,2.64 6.4,3.75 2.1,1.2 4.29,2.43 6.5,3.63 2.33,1.28 4.54,2.45 6.57,3.51 2.51,1.32 4.63,2.39 6.33,3.23l3.41 1.69 0.66 0.32 0.88 0.44 0.87 -0.44 0.65 -0.32 3.41 -1.69c1.71,-0.85 3.83,-1.92 6.36,-3.25 2.03,-1.05 4.24,-2.23 6.56,-3.5 2.21,-1.21 4.41,-2.43 6.5,-3.63 1.93,-1.11 4.06,-2.36 6.4,-3.76 2.01,-1.2 4.06,-2.45 6.14,-3.76 1.89,-1.19 3.89,-2.47 6,-3.85 1.96,-1.29 3.89,-2.58 5.76,-3.87 1.78,-1.23 3.6,-2.51 5.44,-3.84l0.14 -0.07c1.93,-1.4 3.85,-2.83 5.76,-4.29 1.85,-1.43 3.7,-2.88 5.52,-4.36 1.79,-1.46 3.52,-2.91 5.2,-4.35 1.72,-1.49 3.34,-2.94 4.89,-4.36 1.56,-1.44 3.1,-2.91 4.61,-4.41 1.44,-1.42 2.88,-2.9 4.32,-4.45 1.44,-1.53 2.77,-3.01 3.99,-4.42 1.3,-1.52 2.51,-2.98 3.62,-4.39l0.08 -0.14c1.33,-1.71 2.58,-3.4 3.74,-5.07 1.21,-1.74 2.31,-3.44 3.3,-5.09 1.04,-1.72 1.99,-3.43 2.85,-5.12 0.86,-1.68 1.64,-3.37 2.34,-5.07 0.75,-1.8 1.4,-3.58 1.96,-5.33 0.55,-1.76 1.02,-3.53 1.4,-5.3 0.37,-1.76 0.66,-3.52 0.85,-5.27 0.19,-1.77 0.28,-3.5 0.28,-5.19l0 -140.28 0 -9.46 0 -1.82 0 -2.42 -2.37 0.49 -1.78 0.37 -9.26 1.91c-4.81,1 -9.47,1.78 -13.97,2.35l-0.01 0c-4.5,0.56 -8.88,0.92 -13.12,1.07 -4.22,0.15 -8.32,0.09 -12.32,-0.18 -3.98,-0.27 -7.81,-0.74 -11.49,-1.42 -3.57,-0.66 -7.05,-1.52 -10.43,-2.58 -3.35,-1.05 -6.59,-2.31 -9.71,-3.76 -3.13,-1.45 -6.12,-3.1 -8.99,-4.93 -2.86,-1.83 -5.62,-3.87 -8.29,-6.12l-4.78 -4.04 -0.92 -0.77 -1.22 -1.04 -1.27 0.99zm-57.43 31.71c4.06,-0.23 8.06,-0.71 11.99,-1.43 3.9,-0.72 7.74,-1.68 11.54,-2.89 3.8,-1.21 7.52,-2.66 11.15,-4.34 3.63,-1.67 7.22,-3.61 10.75,-5.79 3.52,-2.16 6.98,-4.58 10.37,-7.23l2.72 -2.12 2.63 2.22c2.88,2.43 5.89,4.65 9.05,6.68 3.16,2.01 6.43,3.81 9.81,5.38 3.38,1.57 6.89,2.93 10.53,4.08 3.61,1.13 7.36,2.06 11.25,2.78 3.97,0.72 8.06,1.23 12.26,1.51 4.18,0.29 8.52,0.35 13.01,0.19 4.45,-0.15 9.03,-0.53 13.76,-1.12 4.73,-0.6 9.56,-1.41 14.51,-2.43l5.1 -1.05 0 5.21 0 140.28c0,1.5 -0.08,3 -0.24,4.47 -0.16,1.5 -0.4,3.02 -0.73,4.56 -0.33,1.52 -0.74,3.08 -1.24,4.66 -0.5,1.59 -1.08,3.17 -1.74,4.75 -0.62,1.5 -1.33,3.03 -2.12,4.59 -0.79,1.55 -1.66,3.11 -2.6,4.68 -0.98,1.62 -2.01,3.21 -3.09,4.77 -1.12,1.61 -2.3,3.21 -3.55,4.81l-0.03 0.06c-1.07,1.35 -2.21,2.74 -3.42,4.15 -1.31,1.51 -2.56,2.91 -3.75,4.18 -1.25,1.34 -2.62,2.74 -4.1,4.2 -1.41,1.4 -2.91,2.83 -4.49,4.28 -1.57,1.45 -3.15,2.86 -4.75,4.25 -1.63,1.4 -3.3,2.8 -5.01,4.19 -1.69,1.37 -3.46,2.76 -5.31,4.19 -1.79,1.36 -3.66,2.76 -5.62,4.18l-0.06 0.04c-1.79,1.29 -3.61,2.57 -5.44,3.83 -1.78,1.23 -3.67,2.49 -5.62,3.78l0 0c-1.89,1.24 -3.84,2.49 -5.84,3.74l0 0.01c-1.95,1.22 -3.98,2.46 -6.05,3.7 -2.03,1.22 -4.15,2.45 -6.31,3.69 -2.38,1.37 -4.49,2.55 -6.35,3.56 -2.33,1.28 -4.48,2.43 -6.43,3.44 -2.28,1.2 -4.41,2.27 -6.25,3.18l-1.88 0.93 -1.88 -0.93c-1.83,-0.91 -3.96,-1.98 -6.24,-3.17 -1.94,-1.01 -4.09,-2.15 -6.42,-3.43 -1.87,-1.02 -3.89,-2.15 -6.06,-3.39l0 -0.01c-2.24,-1.28 -4.46,-2.57 -6.59,-3.85 -1.93,-1.15 -3.93,-2.37 -5.99,-3.67 -1.83,-1.15 -3.81,-2.41 -5.92,-3.8 -1.99,-1.3 -3.89,-2.58 -5.67,-3.81 -1.84,-1.26 -3.64,-2.53 -5.41,-3.8l-0.06 -0.04c-1.95,-1.41 -3.82,-2.81 -5.6,-4.17 -1.86,-1.42 -3.63,-2.82 -5.32,-4.19 -1.71,-1.39 -3.38,-2.79 -5.01,-4.2 -1.6,-1.38 -3.18,-2.79 -4.75,-4.24 -1.5,-1.38 -2.99,-2.81 -4.47,-4.28l-0.01 0.01c-1.48,-1.47 -2.86,-2.88 -4.11,-4.22 -1.25,-1.33 -2.5,-2.73 -3.75,-4.17l0 -0.01c-1.21,-1.41 -2.34,-2.79 -3.4,-4.14l-0.04 -0.07c-1.25,-1.6 -2.44,-3.21 -3.55,-4.81 -1.09,-1.57 -2.12,-3.17 -3.1,-4.79 -0.98,-1.62 -1.85,-3.18 -2.62,-4.68 -0.76,-1.5 -1.47,-3.03 -2.12,-4.59 -0.65,-1.57 -1.23,-3.16 -1.73,-4.74 -0.5,-1.59 -0.92,-3.14 -1.24,-4.66 -0.33,-1.54 -0.58,-3.05 -0.74,-4.55 -0.16,-1.47 -0.24,-2.97 -0.24,-4.47l0 -140.28 0 -5.56 5.37 1.47c4.48,1.23 8.86,2.2 13.13,2.93 4.31,0.74 8.56,1.23 12.75,1.49 2.17,0.13 4.33,0.19 6.48,0.19 1.98,0 3.95,-0.05 5.9,-0.17zm57.14 -12.07l-0.88 0.62 0 0c-3.36,2.38 -6.75,4.54 -10.18,6.48 -3.41,1.92 -6.92,3.66 -10.53,5.21l-0.93 0.39c-3.24,1.36 -6.55,2.55 -9.92,3.57 -3.7,1.12 -7.43,2.03 -11.18,2.71 -3.49,0.65 -7.05,1.11 -10.68,1.4 -3.65,0.29 -7.31,0.4 -10.97,0.33 -3.67,-0.08 -7.42,-0.33 -11.26,-0.77 -3.83,-0.44 -7.69,-1.06 -11.57,-1.85l-1.78 -0.36 -2.37 -0.49 0 2.42 0 1.81 0 130.53c0,1.2 0.07,2.44 0.21,3.71 0.14,1.26 0.35,2.52 0.62,3.78 0.26,1.21 0.61,2.48 1.03,3.8 0.42,1.32 0.9,2.61 1.42,3.88 0.56,1.33 1.2,2.71 1.94,4.15 0.39,0.76 0.8,1.52 1.23,2.29l-0.04 0.02 1.15 1.9c0.85,1.4 1.76,2.81 2.75,4.23 0.95,1.36 2.01,2.79 3.18,4.29l0.9 1.15 1.21 1.54 0.06 -0.04c0.52,0.61 1.05,1.24 1.61,1.87 0.94,1.08 1.96,2.21 3.06,3.39 1.3,1.39 2.6,2.72 3.88,3.99 1.36,1.35 2.75,2.68 4.15,3.97 1.41,1.31 2.92,2.65 4.51,4.02 1.57,1.35 3.19,2.71 4.86,4.07 1.5,1.21 3.04,2.43 4.6,3.63 1.05,0.81 2.1,1.61 3.15,2.39l-0.02 0.04 1.64 1.18 1.22 0.89c1.8,1.3 3.57,2.54 5.29,3.73 1.94,1.33 3.76,2.56 5.46,3.67 1.68,1.11 3.6,2.33 5.69,3.64 2.1,1.31 4.08,2.52 5.92,3.63 1.71,1.02 3.46,2.04 5.22,3.06 1.92,1.1 3.69,2.1 5.32,3.01 1.89,1.04 3.72,2.04 5.46,2.96 2.15,1.15 3.88,2.05 5.27,2.76l0.67 0.34 0.89 0.46 0.91 -0.47 0.67 -0.34 0 0.01c1.38,-0.7 3.11,-1.61 5.26,-2.75 1.74,-0.93 3.58,-1.93 5.47,-2.98 1.57,-0.87 3.27,-1.83 5.11,-2.89 1.83,-1.05 3.66,-2.12 5.45,-3.19 1.85,-1.11 3.83,-2.32 5.93,-3.64 2.08,-1.3 3.99,-2.52 5.67,-3.62 1.7,-1.11 3.51,-2.34 5.45,-3.67 1.73,-1.19 3.49,-2.43 5.28,-3.72l1.23 -0.89 1.65 -1.19 -0.03 -0.04c1.06,-0.79 2.12,-1.59 3.18,-2.41 1.55,-1.19 3.08,-2.4 4.57,-3.61 1.67,-1.36 3.3,-2.71 4.86,-4.06 1.59,-1.38 3.1,-2.72 4.52,-4.03 1.41,-1.29 2.79,-2.62 4.15,-3.96 1.35,-1.34 2.65,-2.67 3.88,-3.98l0.01 -0.02c1.1,-1.18 2.12,-2.31 3.06,-3.38 0.55,-0.63 1.08,-1.25 1.59,-1.86l0.06 0.05 1.21 -1.56 0.91 -1.15c1.17,-1.5 2.22,-2.92 3.17,-4.29 0.98,-1.41 1.9,-2.82 2.74,-4.21 0.83,-1.36 1.61,-2.77 2.34,-4.21 0.73,-1.43 1.38,-2.82 1.94,-4.16 0.52,-1.27 1,-2.56 1.42,-3.88 0.42,-1.33 0.76,-2.59 1.03,-3.81 0.27,-1.26 0.48,-2.52 0.62,-3.78 0.14,-1.27 0.21,-2.51 0.21,-3.71l0 -131.04 0 -1.74 0 -2.31 -2.29 0.36 -1.72 0.28c-4.31,0.69 -8.58,1.21 -12.8,1.57 -4.23,0.36 -8.3,0.55 -12.21,0.56 -3.91,0.02 -7.78,-0.14 -11.61,-0.46 -3.8,-0.33 -7.48,-0.82 -11.03,-1.47 -3.73,-0.69 -7.39,-1.56 -10.95,-2.63 -3.55,-1.06 -6.99,-2.3 -10.31,-3.72 -3.34,-1.43 -6.56,-3.03 -9.65,-4.81 -3.11,-1.79 -6.12,-3.76 -9.03,-5.92l-0.87 -0.64 -1.15 -0.86 -1.16 0.83zm-53.75 27.27c3.82,-0.3 7.61,-0.8 11.38,-1.49 4.07,-0.75 8.05,-1.71 11.93,-2.89 3.9,-1.18 7.75,-2.59 11.56,-4.22l0.02 0c3.62,-1.56 7.19,-3.32 10.71,-5.29 3.14,-1.75 6.22,-3.66 9.23,-5.7 2.63,1.85 5.36,3.58 8.16,5.17 3.21,1.82 6.51,3.46 9.91,4.91 3.58,1.53 7.26,2.86 11.04,3.99 3.76,1.12 7.66,2.06 11.69,2.8 3.82,0.7 7.72,1.22 11.67,1.56 3.93,0.33 8.01,0.49 12.22,0.48 3.95,-0.02 7.93,-0.19 11.93,-0.51 3.33,-0.26 6.72,-0.64 10.15,-1.11l0 127.03c0,0.99 -0.05,1.98 -0.16,2.96 -0.12,1 -0.29,2.02 -0.51,3.07 -0.24,1.1 -0.53,2.17 -0.86,3.21 -0.33,1.05 -0.74,2.14 -1.21,3.29 -0.52,1.24 -1.09,2.47 -1.7,3.67 -0.61,1.19 -1.32,2.45 -2.11,3.77 -0.68,1.12 -1.39,2.23 -2.13,3.31 -0.68,1 -1.4,2.01 -2.17,3.03l-0.24 0.31 -0.91 1.15c-1,1.28 -2.03,2.53 -3.07,3.74 -0.82,0.95 -1.63,1.87 -2.44,2.75l-0.9 0.97c-1.19,1.27 -2.42,2.53 -3.69,3.79l-0.01 0c-1.33,1.31 -2.66,2.58 -3.98,3.8 -1.44,1.33 -2.9,2.63 -4.38,3.91 -1.51,1.3 -3.08,2.61 -4.68,3.91 -1.57,1.28 -3.24,2.59 -4.99,3.93 -1.67,1.28 -3.44,2.6 -5.3,3.95l-1.22 0.88 -1.1 0.8c-1.11,0.78 -2.24,1.57 -3.4,2.36 -1.52,1.04 -3.11,2.1 -4.75,3.17 -2.12,1.4 -3.99,2.6 -5.62,3.62l-0.01 0c-1.97,1.24 -3.88,2.41 -5.73,3.51 -1.83,1.1 -3.54,2.1 -5.13,3.02 -1.74,1 -3.49,1.99 -5.23,2.96 -1.75,0.96 -3.39,1.85 -4.9,2.66 -1.44,0.77 -2.79,1.48 -4.05,2.13 -1.25,-0.65 -2.6,-1.35 -4.03,-2.12 -1.52,-0.81 -3.16,-1.7 -4.91,-2.67 -1.74,-0.96 -3.49,-1.95 -5.22,-2.94 -1.6,-0.92 -3.31,-1.93 -5.13,-3.02 -1.96,-1.17 -3.88,-2.34 -5.73,-3.5 -1.64,-1.03 -3.51,-2.23 -5.64,-3.63 -1.65,-1.08 -3.24,-2.15 -4.77,-3.19 -1.11,-0.76 -2.2,-1.51 -3.26,-2.26l-1.24 -0.9 -1.21 -0.88c-1.86,-1.35 -3.63,-2.67 -5.31,-3.95 -1.75,-1.34 -3.41,-2.65 -4.98,-3.92 -1.6,-1.3 -3.17,-2.61 -4.68,-3.92 -1.47,-1.27 -2.93,-2.57 -4.37,-3.9 -1.34,-1.23 -2.67,-2.51 -4,-3.82l-0.01 0c-1.33,-1.32 -2.55,-2.57 -3.66,-3.76 -1.12,-1.2 -2.25,-2.45 -3.37,-3.75 -1.09,-1.27 -2.11,-2.51 -3.06,-3.72l0 0 -0.9 -1.16 -0.2 -0.25c-0.79,-1.05 -1.53,-2.08 -2.22,-3.09 -0.74,-1.09 -1.45,-2.2 -2.13,-3.32l-0.58 -0.96 0 0c-0.55,-0.93 -1.06,-1.87 -1.53,-2.8 -0.62,-1.2 -1.19,-2.43 -1.71,-3.69 -0.48,-1.14 -0.88,-2.24 -1.22,-3.29 -0.33,-1.03 -0.61,-2.1 -0.85,-3.2 -0.23,-1.04 -0.4,-2.07 -0.51,-3.06 -0.11,-0.98 -0.16,-1.97 -0.16,-2.96l0 -126.35c2.98,0.52 5.95,0.94 8.89,1.25 3.69,0.4 7.37,0.63 11.03,0.71 0.82,0.01 1.64,0.02 2.45,0.02 3.12,0 6.19,-0.12 9.2,-0.36zm94.95 184.14c-0.37,0.26 -0.74,0.53 -1.11,0.79l1.11 -0.79z"/>
  <path class="fil5" d="M84.28 96.55c-4.13,4.01 -6.26,6.9 -2.27,10.96l12.65 -11.96c-1.96,-1.86 -3.37,-2.71 -4.7,-2.71 -1.68,0 -3.25,1.35 -5.68,3.71z"/>
  <path class="fil6" d="M84.88 95.88c-4.16,4.03 -6.28,6.93 -2.22,11.02l12.65 -11.97c-1.99,-1.89 -3.41,-2.76 -4.75,-2.76 -1.68,0 -3.25,1.35 -5.68,3.71z"/>
  <path class="fil7" d="M84.88 95.88c-4.16,4.03 -6.28,6.93 -2.22,11.02l0.55 -0.52c-3.95,-4.05 -1.83,-6.94 2.3,-10.94 1.08,-1.05 1.99,-1.9 2.82,-2.52 -1,0.63 -2.09,1.63 -3.45,2.96z"/>
  <path class="fil8" d="M84.88 95.88c-2.83,2.74 -4.72,4.96 -4.35,7.4 0.27,-2 1.98,-3.94 4.35,-6.24 4.18,-4.04 5.8,-5.11 9.82,-1.52l0.61 -0.59c-1.99,-1.89 -3.41,-2.76 -4.75,-2.76 -1.68,0 -3.25,1.35 -5.68,3.71z"/>
  <path class="fil9" d="M101.8 121.88c0,0 45.53,40.43 59.87,53.74 14.34,13.32 31,27.92 37.4,35.34 6.4,7.42 7.94,6.66 14.67,-0.1 6.73,-6.76 9.6,-10.95 0.32,-16.5 -9.29,-5.55 -51.13,-40.39 -59.08,-48.02 -7.95,-7.64 -24.98,-20.26 -29.06,-26.39 -4.08,-6.13 -11.82,-10.3 -11.82,-10.3l-12.3 12.23z"/>
  <path class="fil10" d="M101 122.77c0,0 45.53,40.43 59.87,53.74 14.34,13.32 31,27.92 37.4,35.34 6.41,7.42 7.95,6.67 14.67,-0.09 6.73,-6.76 9.61,-10.96 0.32,-16.51 -9.29,-5.55 -51.13,-40.39 -59.08,-48.02 -7.94,-7.64 -24.98,-20.26 -29.06,-26.39 -4.08,-6.13 -11.82,-10.3 -11.82,-10.3l-12.3 12.23z"/>
  <path class="fil11" d="M112.61 111.22c0.95,0.53 7.91,4.54 11.71,10.25 4.08,6.13 21.12,18.75 29.07,26.38 7.94,7.64 49.78,42.48 59.07,48.02 9.29,5.55 6.41,9.75 -0.31,16.51 -1.42,1.43 -2.61,2.58 -3.66,3.45 1.25,-0.91 2.67,-2.28 4.45,-4.07 6.73,-6.76 9.61,-10.96 0.32,-16.51 -9.29,-5.55 -51.13,-40.39 -59.08,-48.02 -7.94,-7.64 -24.98,-20.26 -29.06,-26.39 -4.08,-6.13 -11.82,-10.3 -11.82,-10.3l-0.69 0.68z"/>
  <path class="fil12" d="M101.22 122.96c0,0 50.98,45.2 63.97,57.33 12.99,12.13 28.12,25.4 33.86,32.24 5.73,6.83 7.22,6.03 13.91,-0.76 3.67,-3.74 6.21,-6.69 6.32,-9.39 -0.72,2.34 -3,4.92 -6.08,8.06 -6.69,6.79 -8.18,7.59 -13.92,0.75 -5.73,-6.83 -21.31,-20.52 -33.85,-32.23 -12.54,-11.71 -58.39,-52.37 -63.4,-56.82l-0.81 0.82z"/>
  <path class="fil13" d="M103.42 81.85c-10.93,12.51 -25.09,28.69 -36.03,41.19 6.64,5.81 13.28,11.62 19.92,17.43 16.03,-18.32 35.27,-40.32 51.3,-58.64 -1.78,-1.56 -3.56,-3.11 -5.34,-4.67 -6.86,9.12 -19.02,13.46 -29.85,4.69z"/>
  <path class="fil14" d="M103.42 81.85c-10.93,12.51 -25.09,28.69 -36.03,41.19l1.35 1.18 35.21 -40.26c10.82,8.77 22.98,4.43 29.85,-4.69l3.99 3.49 0.82 -0.93c-1.78,-1.56 -3.56,-3.11 -5.34,-4.67 -6.86,9.12 -19.02,13.46 -29.85,4.69z"/>
  <path class="fil15" d="M137.93 81.23l0.68 0.6c-16.03,18.32 -35.27,40.32 -51.3,58.64l-0.68 -0.6 51.3 -58.64z"/>
  <path class="fil16" d="M104.13 99.77c-10.21,8.51 -18.61,14.41 -22.21,19.1 -3.59,4.69 -3.54,6.53 -4.26,9.53l10.19 8.91 42.38 -48.44c0,0 -15.89,2.39 -26.1,10.9z"/>
  <polygon class="fil17" points="120.8,155.81 120.9,206.1 126.18,210.06 129.87,208.48 129.91,208.43 127.11,207.43 131.92,205.65 129.13,204.65 133.94,202.87 133.94,202.87 131.15,201.87 135.95,200.09 135.96,200.09 133.17,199.09 137.97,197.31 137.97,197.3 135.19,196.31 139.98,194.54 139.99,194.52 137.22,193.53 141.99,191.76 142.01,191.74 139.24,190.75 144.01,188.98 144.02,188.96 141.26,187.97 146.02,186.2 146.04,186.18 143.28,185.19 148.04,183.42 148.06,183.39 145.3,182.41 150.05,180.65 150.07,180.61 147.32,179.63 152.06,177.87 152.09,177.83 149.34,176.84 154.08,175.09 154.11,175.05 151.36,174.06 156.09,172.31 156.12,172.26 153.38,171.28 158.1,169.53 158.14,169.48 155.4,168.5 160.11,166.75 160.15,166.7 157.42,165.72 162.13,163.98 162.17,163.92 159.44,162.94 164.14,161.2 164.19,161.14 161.46,160.16 166.16,158.42 166.2,158.35 163.48,157.38 168.17,155.64 168.22,155.57 165.5,154.6 170.18,152.87 170.24,152.79 167.52,151.82 172.2,150.09 172.25,150.01 169.54,149.04 174.21,147.31 174.27,147.23 171.56,146.26 176.22,144.53 176.29,144.44 173.59,143.48 178.24,141.75 178.3,141.66 175.61,140.7 180.25,138.98 180.32,138.88 177.63,137.92 182.26,136.2 182.33,136.1 179.65,135.13 184.28,133.42 184.35,133.32 181.67,132.35 186.29,130.64 186.37,130.53 183.69,129.57 188.3,127.86 188.38,127.75 185.71,126.79 190.32,125.09 190.4,124.97 187.73,124.01 192.33,122.31 192.42,122.19 189.75,121.23 194.34,119.53 194.43,119.4 191.77,118.45 196.36,116.75 196.45,116.62 193.79,115.67 198.37,113.97 198.47,113.84 195.81,112.89 200.38,111.2 200.48,111.06 197.83,110.11 202.4,108.42 202.5,108.28 199.85,107.33 204.41,105.64 204.52,105.49 201.87,104.55 206.42,102.86 206.53,102.71 203.89,101.77 208.44,100.08 208.55,99.93 205.91,98.99 210.45,97.31 210.56,97.15 207.93,96.21 212.46,94.53 212.58,94.37 209.96,93.43 214.48,91.75 214.6,91.58 211.98,90.64 216.49,88.97 216.61,88.8 214,87.86 218.5,86.19 218.63,86.02 216.02,85.08 220.52,83.42 220.65,83.24 218.04,82.3 222.53,80.64 222.66,80.45 220.06,79.52 224.54,77.86 224.68,77.67 222.08,76.74 226.56,75.08 226.7,74.89 224.1,73.96 228.57,72.3 228.71,72.11 226.12,71.18 229.65,69.87 219.71,62.05 "/>
  <polygon class="fil18" points="120.33,155.78 120.42,206.07 125.71,210.02 129.39,208.45 129.43,208.4 126.64,207.4 131.44,205.62 128.66,204.62 133.46,202.84 133.46,202.84 130.68,201.84 135.48,200.06 135.48,200.06 132.7,199.06 137.49,197.28 137.5,197.27 134.72,196.28 139.5,194.5 139.51,194.49 136.74,193.5 141.52,191.73 141.53,191.71 138.76,190.72 143.53,188.95 143.55,188.93 140.78,187.94 145.54,186.17 145.56,186.14 142.8,185.16 147.56,183.39 147.58,183.36 144.82,182.37 149.57,180.61 149.6,180.58 146.84,179.59 151.58,177.84 151.61,177.8 148.86,176.81 153.6,175.06 153.63,175.02 150.88,174.03 155.61,172.28 155.64,172.23 152.9,171.25 157.62,169.5 157.66,169.45 154.92,168.47 159.64,166.72 159.68,166.67 156.94,165.69 161.65,163.95 161.69,163.89 158.96,162.91 163.66,161.17 163.71,161.11 160.98,160.13 165.68,158.39 165.73,158.32 163,157.35 167.69,155.61 167.74,155.54 165.03,154.57 169.7,152.83 169.76,152.76 167.05,151.79 171.72,150.06 171.78,149.98 169.07,149.01 173.73,147.28 173.79,147.19 171.09,146.23 175.74,144.5 175.81,144.41 173.11,143.45 177.76,141.72 177.82,141.63 175.13,140.67 179.77,138.94 179.84,138.85 177.15,137.89 181.78,136.17 181.86,136.07 179.17,135.1 183.8,133.39 183.87,133.28 181.19,132.32 185.81,130.61 185.89,130.5 183.21,129.54 187.83,127.83 187.91,127.72 185.23,126.76 189.84,125.05 189.92,124.94 187.25,123.98 191.85,122.28 191.94,122.16 189.27,121.2 193.87,119.5 193.96,119.37 191.29,118.42 195.88,116.72 195.97,116.59 193.31,115.64 197.89,113.94 197.99,113.81 195.33,112.86 199.91,111.16 200,111.03 197.35,110.08 201.92,108.39 202.02,108.25 199.37,107.3 203.93,105.61 204.04,105.46 201.4,104.52 205.95,102.83 206.05,102.68 203.42,101.74 207.96,100.05 208.07,99.9 205.44,98.96 209.97,97.27 210.09,97.12 207.46,96.17 211.99,94.5 212.1,94.33 209.48,93.39 214,91.72 214.12,91.55 211.5,90.61 216.01,88.94 216.14,88.77 213.52,87.83 218.03,86.16 218.15,85.99 215.54,85.05 220.04,83.38 220.17,83.2 217.56,82.27 222.05,80.61 222.18,80.42 219.58,79.49 224.07,77.83 224.2,77.64 221.6,76.71 226.08,75.05 226.22,74.86 223.62,73.93 228.09,72.27 228.23,72.08 225.64,71.15 229.17,69.84 219.23,62.02 "/>
  <path class="fil19" d="M121.93 154.26l-1.6 1.52 0.09 50.29 1.24 0.92c1.23,-1.46 2.31,-3.35 3,-6.04 2.33,-9.08 6.82,-16.35 8.33,-22.05 1.51,-5.7 -3.88,-15.98 -6.36,-20.05 -2.49,-4.07 -3.48,-5.59 -3.48,-5.59 0,0 -0.47,0.36 -1.22,1z"/>
  <path class="fil20" d="M108.16 169.03c-2.95,7.71 -6.79,6.16 -9.04,8.49 -3.71,3.86 -0.69,4.33 -4.61,7.76 -3.92,3.42 -9.03,5.7 -10.54,10.51 -1.51,4.81 1.34,3.19 3.63,1.94 2.29,-1.25 5.84,-3.74 7.43,-1.88 1.6,1.87 3.51,7.44 5.45,10.09 1.95,2.64 3.87,4.76 3.43,6.66 -0.44,1.89 -3.49,8.33 -1.23,11.02 2.25,2.69 6.47,-3.45 8.45,-8.19 1.98,-4.74 8.61,-4.61 10.73,-13.41 2.11,-8.81 6.4,-15.81 7.77,-21.34 1.37,-5.52 -4.14,-15.65 -6.66,-19.67 -2.53,-4.02 -1.71,-6.2 -1.71,-6.2 0,0 -10.4,7.16 -13.1,14.22zm-1.74 33.04c-2.01,-4.12 -5.38,-17.86 -5.38,-17.86 0,0 -0.46,-0.97 0.34,-2.77 0.81,-1.81 3.56,-4.52 7.5,-5.08 3.94,-0.56 4.85,8.29 4.79,12.71 -0.07,4.42 3.69,6.76 1.93,12.9 -0.81,2.8 -2.38,3.92 -4.03,3.92 -1.97,0 -4.06,-1.59 -5.15,-3.82z"/>
  <path class="fil21" d="M109.57 169.02c-3.16,7.97 -7.03,6.46 -9.36,8.9 -3.85,4.03 -0.79,4.46 -4.84,8.05 -4.06,3.59 -9.3,6.03 -10.93,11 -1.64,4.96 1.29,3.24 3.65,1.92 2.35,-1.33 6,-3.96 7.59,-2.08 1.58,1.88 3.41,7.56 5.33,10.23 1.92,2.68 3.83,4.82 3.35,6.77 -0.49,1.95 -3.72,8.62 -1.48,11.33 2.23,2.72 6.64,-3.67 8.75,-8.57 2.11,-4.91 8.85,-4.91 11.18,-13.99 2.33,-9.07 6.82,-16.34 8.33,-22.04 1.51,-5.7 -3.88,-15.98 -6.36,-20.05 -2.49,-4.08 -3.48,-5.6 -3.48,-5.6 0,0 -8.84,6.83 -11.73,14.13zm-2.45 33.93c-1.96,-4.19 -5.1,-18.21 -5.1,-18.21 0,0 -0.45,-0.99 0.41,-2.85 0.85,-1.87 3.7,-4.71 7.72,-5.37 4.01,-0.65 4.76,8.41 4.6,12.95 -0.15,4.53 3.62,6.86 1.7,13.19 -0.89,2.94 -2.54,4.11 -4.25,4.11 -1.97,0 -4.03,-1.57 -5.08,-3.82z"/>
  <path class="fil22" d="M109.15 169.1c-2.95,7.71 -6.79,6.17 -9.03,8.49 -3.71,3.86 -0.7,4.34 -4.61,7.76 -3.92,3.42 -9.04,5.7 -10.55,10.51 -1.51,4.81 1.34,3.19 3.64,1.94 2.29,-1.24 5.83,-3.74 7.42,-1.88 1.6,1.87 3.52,7.44 5.46,10.09 1.94,2.64 3.86,4.76 3.42,6.66 -0.43,1.89 -3.49,8.33 -1.23,11.02 2.26,2.69 6.47,-3.45 8.45,-8.19 1.99,-4.74 8.62,-4.61 10.73,-13.41 2.12,-8.81 6.4,-15.81 7.77,-21.33 1.38,-5.53 -4.13,-15.66 -6.66,-19.68 -2.52,-4.02 -3.53,-5.52 -3.53,-5.52 0,0 -8.57,6.48 -11.28,13.54zm-1.74 33.04c-2.01,-4.12 -5.38,-17.86 -5.38,-17.86 0,0 -0.46,-0.97 0.35,-2.77 0.81,-1.81 3.56,-4.52 7.5,-5.08 3.94,-0.56 4.85,8.29 4.78,12.71 -0.06,4.42 3.69,6.77 1.93,12.9 -0.81,2.8 -2.37,3.92 -4.03,3.92 -1.96,0 -4.06,-1.58 -5.15,-3.82z"/>
  <path class="fil23" d="M109.15 169.1c-2.95,7.71 -6.79,6.17 -9.03,8.49 -3.71,3.86 -0.7,4.34 -4.61,7.76 -3.92,3.42 -9.04,5.7 -10.55,10.51 -0.65,2.06 -0.49,2.94 0.08,3.17 -0.13,-0.49 -0.04,-1.32 0.36,-2.62 1.51,-4.81 6.63,-7.09 10.55,-10.51 3.92,-3.42 0.9,-3.9 4.61,-7.76 2.24,-2.32 6.09,-0.77 9.04,-8.49 2.57,-6.74 10.5,-12.95 11.22,-13.5 -0.27,-0.41 -0.39,-0.59 -0.39,-0.59 0,0 -8.57,6.48 -11.28,13.54zm5.51 20.04c-0.06,4.42 3.69,6.77 1.93,12.9 -1.49,5.17 -5.57,4.62 -8.01,1.85 2.36,3.23 6.87,4.2 8.45,-1.3 1.77,-6.13 -1.99,-8.48 -1.92,-12.9 0.05,-3.47 -0.5,-9.65 -2.64,-11.9 1.77,2.59 2.24,8.14 2.19,11.35zm-13.18 16.87c1.94,2.64 3.86,4.76 3.42,6.66 -0.43,1.89 -3.49,8.33 -1.23,11.02 0.06,0.07 0.13,0.14 0.19,0.2 -1.76,-2.86 1.07,-8.86 1.49,-10.67 0.43,-1.89 -1.49,-4.02 -3.43,-6.66 -1.94,-2.65 -3.86,-8.22 -5.45,-10.09 -0.04,-0.04 -0.08,-0.08 -0.11,-0.11 1.52,2.18 3.31,7.18 5.12,9.65z"/>
  <polygon class="fil24" points="124.93,209.9 124.95,209.92 128.64,208.35 128.68,208.29 125.88,207.29 130.69,205.51 127.9,204.51 132.71,202.73 129.92,201.73 134.72,199.95 134.72,199.95 131.94,198.95 136.73,197.17 136.74,197.17 133.96,196.17 138.75,194.4 138.76,194.38 135.98,193.39 140.76,191.62 140.77,191.6 138,190.61 142.77,188.84 142.79,188.82 140.02,187.83 144.79,186.06 144.81,186.04 142.04,185.05 146.8,183.28 146.82,183.26 144.06,182.27 148.81,180.51 148.84,180.47 146.08,179.49 150.83,177.73 150.86,177.69 148.1,176.71 152.84,174.95 152.87,174.91 150.13,173.93 154.85,172.17 154.89,172.13 152.15,171.15 156.87,169.4 156.9,169.34 154.17,168.37 158.88,166.62 158.92,166.56 156.19,165.58 160.89,163.84 160.94,163.78 158.21,162.8 162.91,161.06 162.95,161 160.23,160.02 164.92,158.28 164.97,158.22 162.25,157.24 166.93,155.51 166.99,155.43 164.27,154.46 168.95,152.73 169,152.65 166.29,151.68 170.96,149.95 171.02,149.87 168.31,148.9 172.97,147.17 173.04,147.09 170.33,146.12 174.99,144.39 175.05,144.31 172.35,143.34 177,141.62 177.07,141.52 174.37,140.56 179.02,138.84 179.08,138.74 176.39,137.78 181.03,136.06 181.1,135.96 178.41,135 183.04,133.28 183.12,133.18 180.43,132.22 185.06,130.5 185.13,130.4 182.45,129.44 187.07,127.73 187.15,127.61 184.47,126.66 189.08,124.95 189.17,124.83 186.49,123.87 191.09,122.17 191.18,122.05 188.52,121.09 193.11,119.39 193.2,119.27 190.54,118.31 195.12,116.61 195.22,116.48 192.56,115.53 197.14,113.84 197.23,113.7 194.58,112.75 199.15,111.06 199.25,110.92 196.6,109.97 201.16,108.28 201.26,108.14 198.62,107.19 203.18,105.5 203.28,105.36 200.64,104.41 205.19,102.72 205.3,102.57 202.66,101.63 207.2,99.95 207.31,99.79 204.68,98.85 209.22,97.17 209.33,97.01 206.7,96.07 211.23,94.39 211.35,94.23 208.72,93.29 213.24,91.61 213.36,91.44 210.74,90.51 215.26,88.83 215.38,88.66 212.76,87.73 217.27,86.06 217.4,85.88 214.78,84.95 219.28,83.28 219.41,83.1 216.8,82.17 221.3,80.5 221.43,80.32 218.82,79.38 223.31,77.72 223.44,77.53 220.84,76.6 225.32,74.94 225.46,74.75 222.87,73.82 227.34,72.17 227.48,71.97 224.89,71.04 228.42,69.73 220.03,63.13 219.7,63.44 227.93,69.91 224.39,71.22 226.99,72.15 226.84,72.35 222.37,74 224.97,74.93 224.83,75.12 220.35,76.79 222.95,77.72 222.82,77.9 218.33,79.57 220.94,80.5 220.8,80.68 216.31,82.35 218.92,83.28 218.79,83.46 214.29,85.13 216.9,86.06 216.78,86.24 212.27,87.91 214.89,88.84 214.76,89.01 210.25,90.69 212.87,91.63 212.75,91.79 208.23,93.47 210.85,94.41 210.74,94.57 206.21,96.25 208.84,97.19 208.72,97.35 204.19,99.03 206.82,99.97 206.71,100.13 202.17,101.81 204.8,102.76 204.7,102.9 200.15,104.59 202.79,105.54 202.68,105.68 198.13,107.37 200.77,108.32 200.67,108.46 196.11,110.15 198.76,111.1 198.66,111.24 194.08,112.93 196.74,113.88 196.64,114.02 192.06,115.71 194.72,116.67 194.63,116.8 190.04,118.49 192.71,119.45 192.62,119.57 188.02,121.28 190.69,122.23 190.6,122.35 186,124.06 188.67,125.01 188.59,125.13 183.98,126.84 186.66,127.79 186.58,127.91 181.96,129.62 184.64,130.58 184.56,130.68 179.94,132.4 182.62,133.36 182.55,133.46 177.92,135.18 180.61,136.14 180.54,136.24 175.9,137.96 178.59,138.92 178.52,139.02 173.88,140.74 176.58,141.71 176.51,141.8 171.86,143.52 174.56,144.49 174.5,144.57 169.84,146.3 172.54,147.27 172.48,147.35 167.82,149.08 170.53,150.05 170.47,150.13 165.8,151.86 168.51,152.83 168.46,152.91 163.78,154.64 166.49,155.62 166.44,155.69 161.76,157.42 164.48,158.4 164.43,158.46 159.74,160.2 162.46,161.18 162.42,161.24 157.71,162.98 160.44,163.96 160.4,164.02 155.69,165.77 158.43,166.74 158.39,166.8 153.67,168.55 156.41,169.53 156.37,169.58 151.65,171.33 154.39,172.31 154.36,172.35 149.63,174.11 152.38,175.09 152.35,175.13 147.61,176.89 150.36,177.87 150.33,177.91 145.59,179.67 148.35,180.66 148.32,180.69 143.57,182.45 146.33,183.44 146.31,183.47 141.55,185.23 144.31,186.22 144.29,186.24 139.53,188.01 142.3,189 142.28,189.02 137.51,190.79 140.28,191.78 140.27,191.8 135.49,193.57 138.26,194.57 138.25,194.58 133.47,196.35 136.25,197.35 136.24,197.36 131.45,199.13 134.23,200.13 134.23,200.13 129.43,201.91 132.21,202.91 132.21,202.91 127.41,204.69 130.19,205.69 125.39,207.48 128.18,208.48 128.14,208.53 "/>
  <path class="fil25" d="M123.86 154.99c-0.17,0.17 -0.42,0.17 -0.55,0.02 -0.14,-0.16 -0.11,-0.42 0.06,-0.58l96.01 -91.33c0.17,-0.16 0.42,-0.17 0.56,-0.01 0.13,0.15 0.1,0.41 -0.07,0.58l-96.01 91.32z"/>
 </g>
</svg>
