<?xml version="1.0" encoding="utf-8"?>
<!-- Generator: Adobe Illustrator 28.1.0, SVG Export Plug-In . SVG Version: 6.00 Build 0)  -->
<svg version="1.1" id="Layer_1" xmlns="http://www.w3.org/2000/svg" xmlns:xlink="http://www.w3.org/1999/xlink" x="0px" y="0px"
	 viewBox="0 0 900.25 185.17" style="enable-background:new 0 0 900.25 185.17;" xml:space="preserve">
<style type="text/css">
	.st0{fill:#384F5A;}
	.st1{fill:#9BCA3B;}
	.st2{fill:#29A9E1;}
	.st3{fill:#219C4A;}
	.st4{fill:#F37523;}
	.st5{display:none;}
	.st6{display:inline;fill:#384F5A;stroke:#384F5A;stroke-width:2;stroke-miterlimit:10;}
	.st7{fill:none;}
	.st8{fill:#384F5A;stroke:#384F5A;stroke-width:2;stroke-miterlimit:10;}
	.st9{font-family:'ADAYWITHOUTSUN';}
	.st10{font-size:60px;}
	.st11{letter-spacing:12;}
</style>
<g>
	<g>
		<path class="st0" d="M2.81,138.07l29.88-13.72c6.8,20.86,22.78,32.66,44.67,32.66c21.3,0,34.61-11.25,34.61-29.1
			c0-19.76-16.27-33.21-50.29-33.76l-9.17-13.18l49.11-55.45H11.98V0h129.86v23.33L97.18,73.84c30.47,4.67,51.77,26.9,51.77,52.98
			c0,31.29-29.29,57.09-72.18,57.09C41.56,183.91,12.57,166.34,2.81,138.07z"/>
		<path class="st0" d="M250.57,3.41c-54.49,0-101.62,42.13-101.62,90.68c0,48.95,47.14,91.08,101.62,91.08
			c54.06,0,101.62-42.13,101.62-91.08C352.19,45.54,304.63,3.41,250.57,3.41z M251.13,168.32c-40.52,0-73.36-32.84-73.36-73.36
			c0-40.52,32.84-73.36,73.36-73.36c40.52,0,73.36,32.84,73.36,73.36C324.49,135.47,291.64,168.32,251.13,168.32z"/>
	</g>
	<g>
		<g>
			<path class="st1" d="M292.02,43.21c-15.13,0.13-29.43,4.89-40.79,13.37c2.23,1.63,4.36,3.38,6.38,5.25l26.78,22.04v25.36
				c9.6-4.09,18.57-9.71,26.53-16.74l5.83-5.15C314.7,69.47,305.47,53.78,292.02,43.21z"/>
			<path class="st2" d="M218.06,83.88l26.75-22.02c2.03-1.88,4.18-3.65,6.42-5.28c-11.35-8.43-25.63-13.24-40.76-13.37
				c-15.33,12.04-25.18,30.72-25.18,51.72c0,0.65,0.03,1.29,0.04,1.93l6.38,4.19c8.19,5.37,17.07,9.43,26.35,12.13V83.88z"/>
			<path class="st3" d="M251.23,29.1c-15.41,0.02-29.58,5.31-40.83,14.15c15.25,0.07,29.35,5,40.83,13.34
				c11.48-8.33,25.58-13.27,40.84-13.34C280.81,34.41,266.65,29.12,251.23,29.1"/>
		</g>
		<path class="st4" d="M251.95,126.25c-21.75,0-48.1-6.46-65.02-17.57c6.3,29.78,32.72,52.14,64.38,52.14
			c34.89,0,63.42-27.15,65.66-61.48C298.02,116.08,279.23,126.25,251.95,126.25z"/>
	</g>
	<g>
		<path class="st0" d="M393.53,26.36c-7.01,0-12.72,5.71-12.72,12.72v80.29h25.33V86.65h21.82l6.2-18.44h-28.02V44.93h35.74
			l7.24-18.57H393.53z"/>
		<path class="st0" d="M496.22,102.04l5.83,17.75h26.6L498.9,39.52c-3.74-9.59-9.41-14.07-17.84-14.07l-0.51,0
			c-7.1,0.13-13.6,4.86-16.17,11.76l-30.77,82.57h23.55l5.83-17.75H496.22z M479.61,49.05l10.32,34.41h-20.65L479.61,49.05z"/>
		<polygon class="st0" points="686.77,26.36 614.77,26.36 614.77,46.21 639.21,46.21 639.21,119.37 660.7,119.37 660.7,46.21 
			686.77,46.21 		"/>
		<path class="st0" d="M738.47,120.69c26.02,0,40.95-13.09,40.95-35.91V26.36h-23.87V82.8c0,11.77-6.38,18.79-17.07,18.79
			c-9.69,0-15.48-7.03-15.48-18.79V26.36h-25.33v58.43C697.66,107.61,712.54,120.69,738.47,120.69z"/>
		<path class="st0" d="M583.85,86.21c-2.52,10.2-7.81,16.26-14.28,16.26c-3.73,0-15.91-2.02-16.13-28.06l-0.01-1.19h0.01l0.01-0.4
			l-0.01-0.65c0.22-26.03,12.4-28.06,16.13-28.06c6.46,0,11.76,6.06,14.28,16.26l23.75,0.13c-2.32-23.56-15.16-35.5-38.16-35.5
			c-25.68,0-42.27,18.77-42.27,47.83v0.89c0,29.06,16.59,47.83,42.27,47.83c23.01,0,35.84-11.94,38.16-35.5L583.85,86.21z"/>
		<path class="st0" d="M870.04,69.18l4.41,50.19h25.79l-10.42-80.26c-1.71-11.97-5.99-14.08-14.33-14.08c-0.92,0-1.89,0.07-2.87,0.2
			c-5.14,0.72-9.45,4.51-10.99,9.65l-18.27,61.1l-0.15-0.46l-0.15,0.46l-18.27-61.1c-1.54-5.15-5.85-8.94-10.99-9.65
			c-0.98-0.14-1.94-0.2-2.87-0.2c-8.35,0-12.62,2.11-14.33,14.09l-10.42,80.25h25.79l4.41-50.19l2.29-0.26l16.3,50.44h16.49
			l16.29-50.44L870.04,69.18z"/>
	</g>
	<g class="st5">
		<path class="st6" d="M387.49,158.4c0.23,0.89,0.43,1.78,0.59,2.68c0.16,0.89,0.24,1.8,0.24,2.72v0.42c0,0.15,0,0.33,0,0.53
			c0,0.2-0.02,0.38-0.05,0.53c-0.06,0.46-0.17,0.95-0.32,1.48c-0.15,0.52-0.34,1.03-0.57,1.52c-0.23,0.49-0.49,0.92-0.78,1.29
			c-0.29,0.37-0.57,0.61-0.85,0.74c-0.31,0.15-0.66,0.23-1.05,0.23c-0.82,0-1.6-0.33-2.31-0.99c-0.72-0.66-1.21-1.73-1.49-3.2
			c-0.15-0.86-0.25-1.72-0.3-2.58c-0.05-0.86-0.07-1.73-0.07-2.63v-0.69c0-0.09,0.01-0.26,0.02-0.51c0.02-0.25,0.04-0.48,0.07-0.71
			c0.03-0.23,0.08-0.44,0.14-0.62c0.06-0.18,0.14-0.28,0.23-0.28c0.09,0,0.19,0.02,0.3,0.07c0.11,0.05,0.19,0.12,0.25,0.21v1.11
			c0,0.12-0.01,0.25-0.02,0.37c-0.02,0.12-0.02,0.26-0.02,0.41v1.29c0,0.52,0.02,1.03,0.07,1.52c0.05,0.49,0.1,0.98,0.16,1.47
			c0.06,0.43,0.14,0.87,0.23,1.31c0.09,0.45,0.2,0.87,0.32,1.27c0.12,0.4,0.27,0.75,0.44,1.06c0.17,0.31,0.36,0.52,0.58,0.65
			c0.15,0.15,0.31,0.28,0.48,0.37c0.17,0.09,0.33,0.14,0.48,0.14c0.61,0,1.22-0.35,1.82-1.04c0.6-0.69,0.97-1.73,1.13-3.11
			c0.06-0.25,0.09-0.49,0.09-0.74c0-0.25,0-0.57,0-0.97c0-1.38-0.22-2.77-0.67-4.15c-0.45-1.38-0.88-2.65-1.31-3.78
			c-0.12-0.25-0.22-0.48-0.3-0.71c-0.08-0.23-0.15-0.41-0.21-0.53v-0.05c-0.31-0.71-0.59-1.32-0.85-1.85
			c-0.26-0.52-0.51-1-0.76-1.43c-0.43-0.74-0.84-1.49-1.22-2.26c-0.38-0.77-0.7-1.58-0.94-2.45c-0.25-1.05-0.37-2.09-0.37-3.14
			c0-1.05,0.15-2.15,0.44-3.32c0.29-1.17,0.64-2.11,1.04-2.81c0.21-0.34,0.42-0.58,0.62-0.74c0.2-0.15,0.53-0.26,0.99-0.32h0.18
			c0.03,0,0.06-0.01,0.09-0.02c0.03-0.02,0.08-0.02,0.14-0.02c0.43,0,0.82,0.07,1.17,0.2c0.35,0.13,0.67,0.36,0.94,0.68
			c1.01,1.56,1.52,3.65,1.52,6.26v0.23c0,0.25-0.17,0.37-0.51,0.37c-0.12,0-0.18-0.02-0.18-0.05c-0.09-0.8-0.2-1.55-0.32-2.26
			c-0.12-0.71-0.28-1.41-0.46-2.12v-0.05c-0.58-1.54-1.32-2.3-2.21-2.3c-0.15,0-0.3,0.03-0.44,0.09c-0.14,0.06-0.3,0.22-0.48,0.46
			c-0.25,0.25-0.45,0.58-0.62,0.99c-0.17,0.42-0.32,0.89-0.44,1.43c-0.12,0.54-0.21,1.11-0.25,1.71c-0.05,0.6-0.09,1.18-0.12,1.73
			v0.19c0,1.32,0.18,2.44,0.55,3.35c0.37,0.91,0.78,1.76,1.24,2.56l0.69,1.34l0.65,1.15c0.43,0.86,0.87,1.75,1.31,2.65
			c0.44,0.91,0.81,1.88,1.08,2.93L387.49,158.4z"/>
		<path class="st6" d="M395.73,144.55c0,0.71,0,1.44,0,2.21c0,0.77-0.02,1.57-0.05,2.4c-0.03,0.89-0.05,1.87-0.07,2.93
			c-0.02,1.06-0.02,2.03-0.02,2.93c0,1.2,0.02,2.35,0.05,3.45c0.03,1.11,0.06,2.21,0.09,3.32c0.03,0.8,0.05,1.67,0.07,2.6
			c0.02,0.94,0.02,1.84,0.02,2.69v0.28c0,0.28,0,0.57,0,0.88c0,0.31-0.02,0.6-0.07,0.88c-0.05,0.28-0.12,0.51-0.21,0.69
			c-0.09,0.18-0.22,0.28-0.37,0.28c-0.09,0-0.19-0.08-0.3-0.23c-0.11-0.15-0.16-0.49-0.16-1.01v-21.88c0-0.34-0.01-0.69-0.02-1.06
			c-0.02-0.37-0.02-0.75-0.02-1.15c0-0.12,0-0.29,0-0.51c0-0.21-0.01-0.57-0.02-1.06c-0.02-0.49-0.03-1.16-0.05-2
			c-0.02-0.84-0.04-1.96-0.07-3.34c0-0.34,0.02-0.68,0.07-1.01c0.05-0.34,0.15-0.51,0.3-0.51c0.12,0,0.25,0.02,0.39,0.07
			s0.24,0.12,0.3,0.21L395.73,144.55z"/>
		<path class="st6" d="M411.67,146.95c0,1.04,0.01,2.06,0.02,3.04c0.02,0.98,0.02,1.95,0.02,2.9v5.07c0,0.86,0.01,1.61,0.02,2.26
			c0.02,0.65,0.03,1.22,0.05,1.73c0.02,0.51,0.03,0.97,0.05,1.38c0.02,0.41,0.04,0.82,0.07,1.22c0.06,0.49,0.11,1,0.14,1.52
			c0.03,0.52,0.05,1.04,0.05,1.57c0,0.22,0,0.45,0,0.69c0,0.25-0.02,0.49-0.05,0.74c-0.06,0.46-0.18,0.77-0.37,0.92
			c-0.49,0-0.75-0.06-0.78-0.18l0.05-0.88c0.03-0.46,0.05-0.93,0.05-1.41c0-0.48,0-0.94,0-1.41c0-0.52,0-0.95,0-1.29
			c0-0.34-0.02-0.72-0.05-1.15c0-0.15-0.01-0.34-0.02-0.55c-0.02-0.21-0.04-0.46-0.07-0.74c-0.06-1.23-0.11-2.34-0.14-3.34
			c-0.03-1-0.05-1.94-0.05-2.83c0-0.61-0.17-1.24-0.51-1.89c-0.53-1.23-1-2.26-1.41-3.11c-0.42-0.84-0.81-1.67-1.18-2.46
			c-0.8-1.72-1.49-3.28-2.04-4.68c-0.56-1.4-1.1-2.86-1.62-4.4l0.01,0.14c-0.04,0.89-0.06,1.8-0.06,2.72c0,0.92,0,1.75,0,2.49v1.61
			c0,0.86,0,1.7,0,2.51c0,0.81,0.02,1.64,0.05,2.47c0.03,1.6,0.05,3.23,0.07,4.91c0.01,1.67,0.02,3.43,0.02,5.27
			c0,1.47,0.01,2.66,0.05,3.57c0.03,0.91,0.08,1.76,0.14,2.56v0.65c0,0.37-0.02,0.63-0.05,0.78c-0.03,0.15-0.11,0.32-0.23,0.51
			c0.03-0.03,0.01-0.02-0.06,0.02s-0.19,0.07-0.35,0.07c-0.22,0-0.32-0.11-0.32-0.32c0-1.17-0.01-2.17-0.02-2.99
			c-0.02-0.83-0.02-1.66-0.02-2.49v-3.78c0-2.67-0.05-5.47-0.14-8.39c-0.03-1.17-0.05-2.4-0.05-3.71c0-1.3,0-2.73,0-4.26
			c0-1.41,0-2.67,0-3.78c0-1.11-0.03-2.32-0.09-3.64c0.06-0.28,0.17-0.38,0.32-0.32c0.44,0,0.78,0.29,1.01,0.88
			c0.06,0.37,0.18,0.84,0.35,1.43c0.17,0.58,0.35,1.16,0.53,1.73c0.19,0.57,0.38,1.11,0.58,1.61c0.2,0.51,0.36,0.88,0.49,1.13v0.05
			c0.25,0.34,0.45,0.66,0.6,0.97c0.15,0.31,0.31,0.58,0.46,0.83c0.5,1.11,0.94,2.13,1.35,3.06c0.4,0.94,0.82,1.88,1.25,2.83
			l0.97,2.07v-0.18c-0.03-2.58-0.07-5.15-0.12-7.72c-0.05-2.56-0.08-5.14-0.12-7.72c0.03-0.31,0.08-0.52,0.16-0.65
			c0.08-0.12,0.3-0.18,0.67-0.18c0.12,0.09,0.18,0.18,0.18,0.28c0,0.43,0.01,0.85,0.02,1.27c0.02,0.41,0.02,0.85,0.02,1.31
			c0.03,1.08,0.05,2.3,0.07,3.69C411.66,144.32,411.67,145.66,411.67,146.95z"/>
		<path class="st6" d="M425.54,143.68h-0.14c-0.22,0-0.34-0.06-0.37-0.18l-0.37-1.7c-0.12-0.58-0.25-1.17-0.39-1.75
			c-0.14-0.58-0.31-1.11-0.51-1.59c-0.2-0.48-0.45-0.86-0.74-1.15c-0.29-0.29-0.64-0.44-1.04-0.44c-0.4,0-0.87,0.32-1.4,0.97
			c-0.54,0.65-0.88,1.55-1.04,2.72v0.05c0,0.25-0.01,0.48-0.02,0.71c-0.02,0.23-0.02,0.47-0.02,0.71c-0.03,0.43-0.05,0.84-0.05,1.24
			c0,0.4,0,0.8,0,1.2c0,0.25-0.01,0.49-0.02,0.74c-0.02,0.25-0.02,0.51-0.02,0.78v4.01c0,0.86-0.01,1.72-0.02,2.58
			c-0.02,0.86-0.02,1.72-0.02,2.58c0,1.26,0.02,2.5,0.05,3.73c0.03,1.23,0.08,2.43,0.14,3.59c0.03,0.68,0.06,1.31,0.09,1.91
			c0.03,0.6,0.11,1.22,0.23,1.87c0.18,1.17,0.48,1.97,0.88,2.42c0.4,0.45,0.81,0.67,1.24,0.67c0.43,0,0.91-0.21,1.45-0.65
			c0.54-0.43,0.93-1.09,1.17-1.98c0.09-0.21,0.15-0.52,0.18-0.92c0.03-0.4,0.06-0.81,0.09-1.24v-0.05c0.03-0.4,0.06-0.74,0.09-1.01
			c0.03-0.28,0.11-0.43,0.23-0.46c0.31,0,0.49,0.15,0.55,0.46c0.06,0.31,0.09,0.63,0.09,0.97c0,1.75-0.35,3.16-1.04,4.24
			c-0.69,1.08-1.61,1.61-2.74,1.61c-0.55,0-1.05-0.21-1.5-0.62c-0.45-0.41-0.82-1-1.12-1.75c-0.3-0.75-0.54-1.64-0.71-2.65
			c-0.18-1.01-0.26-2.12-0.26-3.32c0-0.83,0-1.66,0-2.49s-0.02-1.66-0.05-2.49l-0.09-6.59v-0.05c-0.03-0.25-0.05-0.48-0.05-0.71
			c0-0.23,0-0.47,0-0.71c0-0.71,0.01-1.43,0.02-2.17c0.02-0.74,0.04-1.47,0.07-2.21c0.03-0.52,0.05-1.01,0.07-1.47
			c0.02-0.46,0.02-0.94,0.02-1.43c0.1-3.44,1.17-5.33,3.22-5.67h0.32c0.28,0,0.54,0.02,0.78,0.07c0.25,0.05,0.48,0.15,0.69,0.3
			c0.28,0.25,0.55,0.6,0.83,1.06c0.28,0.46,0.52,0.98,0.74,1.54c0.21,0.57,0.39,1.16,0.53,1.77c0.14,0.61,0.21,1.2,0.21,1.75
			c0,0.25-0.02,0.45-0.07,0.6C425.7,143.23,425.63,143.43,425.54,143.68z"/>
		<path class="st6" d="M437.61,136.49c0.15,0,0.35,0.01,0.58,0.02c0.23,0.02,0.44,0.04,0.62,0.07c0.18,0.12,0.27,0.22,0.25,0.28
			c-0.02,0.06,0.01,0.18,0.07,0.37c0,0.15-0.15,0.23-0.46,0.23c-0.4,0-0.78-0.03-1.13-0.09c-0.35-0.06-0.7-0.09-1.04-0.09
			c-0.52,0-1.04,0.01-1.54,0.02c-0.51,0.02-1.04,0.05-1.59,0.12v0.55c0,2.21-0.02,4.42-0.07,6.61c-0.05,2.2-0.07,4.4-0.07,6.61
			l-0.09,0.6c0.4,0,0.84,0.02,1.34,0.05c0.49,0.03,0.95,0.05,1.38,0.05h0.46c0.31,0,0.49,0.18,0.55,0.55v0.09
			c0,0.06-0.14,0.11-0.41,0.14h-0.64c-0.15-0.03-0.3-0.05-0.44-0.05c-0.14,0-0.28,0-0.44,0c-0.25,0-0.53,0.01-0.85,0.02
			c-0.32,0.02-0.61,0.04-0.85,0.07v0.41c-0.03,0.43-0.05,0.86-0.05,1.29c0,0.43,0,0.88,0,1.34v1.75c0,0.31,0.01,0.61,0.02,0.92
			c0.02,0.31,0.02,0.63,0.02,0.97v0.55l-0.05,3.87c0,0.12,0.01,0.31,0.02,0.58c0.02,0.26,0.02,0.85,0.02,1.77v2.86
			c0.24,0.06,0.55,0.1,0.91,0.12c0.36,0.02,0.68,0.02,0.96,0.02c0.33,0,0.67-0.04,1-0.12c0.33-0.08,0.7-0.12,1.1-0.12
			c0.27,0,0.49,0.06,0.66,0.18c0.17,0.12,0.25,0.35,0.25,0.69v0.05l-0.92-0.05c-0.15,0-0.32,0.01-0.51,0.02
			c-0.18,0.02-0.41,0.03-0.69,0.05c-0.28,0.02-0.61,0.03-0.99,0.05c-0.38,0.02-0.85,0.01-1.41-0.02h-0.41H433
			c-0.18,0-0.34-0.06-0.46-0.18c-0.12-0.12-0.18-0.49-0.18-1.11c0.06-0.95,0.08-1.96,0.05-3.04c-0.03-1.07-0.05-2.23-0.05-3.46
			c0-0.86-0.01-1.73-0.02-2.63c-0.02-0.89-0.02-1.78-0.02-2.67v-3.87c0-0.86,0.01-1.6,0.02-2.23c0.02-0.63,0.03-1.21,0.05-1.73
			c0.02-0.52,0.03-1.02,0.05-1.5c0.02-0.48,0.02-1.01,0.02-1.59v-1.01c0-0.95,0.01-1.71,0.02-2.28c0.02-0.57,0.01-1.08-0.02-1.54
			V141c-0.03-0.43-0.05-0.88-0.07-1.36c-0.02-0.48-0.02-1.07-0.02-1.77v-0.23c0-0.09-0.02-0.2-0.05-0.32
			c-0.03-0.12-0.03-0.25,0-0.37c0.03-0.12,0.11-0.22,0.24-0.3c0.13-0.08,0.34-0.12,0.63-0.12c0.16,0,0.32,0.01,0.47,0.02
			c0.15,0.02,0.32,0.02,0.51,0.02h0.69c0.68,0,1.24-0.02,1.7-0.05C437.01,136.5,437.36,136.49,437.61,136.49z"/>
		<path class="st6" d="M460.92,143.68c-0.06,1.47-0.1,2.82-0.12,4.03c-0.02,1.21-0.02,2.16-0.02,2.83v1.8c0,0.58,0,1.11,0,1.59
			c0,0.48,0.03,0.99,0.09,1.54v4.1l0.23,9.86c0,0.31-0.08,0.54-0.23,0.69c-0.34,0-0.58-0.06-0.71-0.18
			c-0.14-0.12-0.21-0.21-0.21-0.28H460v-2.21c0-0.89,0-1.8,0-2.72c0-0.92-0.03-1.84-0.09-2.76v-6.54c-0.03-0.46-0.05-0.97-0.05-1.54
			c0-0.57,0-1.07,0-1.5v-2.21c0-0.28-0.01-0.53-0.02-0.76c-0.02-0.23-0.02-0.47-0.02-0.71v-1.38c0-1.44,0.01-2.76,0.05-3.96
			c0.03-1.2,0.08-2.36,0.14-3.5v-0.28l-3.73,6.45c-0.06,0.06-0.15,0.09-0.28,0.09c-0.12,0-0.21-0.09-0.25-0.28
			c-0.05-0.18-0.07-0.34-0.07-0.46v-0.18c0.8-1.26,1.56-2.58,2.28-3.96c0.72-1.38,1.45-2.87,2.19-4.47l0.37,0.09
			c0.15,0.06,0.29,0.13,0.41,0.21c0.12,0.08,0.18,0.15,0.18,0.21L460.92,143.68z"/>
		<path class="st6" d="M476.58,144.5c0.06,1.14,0.11,2.22,0.14,3.25c0.03,1.03,0.05,2.04,0.05,3.02v7.09c0,1.04-0.03,2.29-0.09,3.73
			c-0.06,1.44-0.22,2.83-0.48,4.15c-0.26,1.32-0.65,2.44-1.17,3.36c-0.52,0.92-1.23,1.38-2.12,1.38c-0.43,0-0.86-0.08-1.29-0.25
			c-0.43-0.17-0.82-0.5-1.17-0.99c-0.35-0.49-0.65-1.17-0.88-2.05c-0.23-0.88-0.35-2.03-0.35-3.48v-0.18l0.18-0.09
			c0.25,0,0.41,0.03,0.51,0.09c0.09,0.06,0.17,0.15,0.23,0.28l0.09-0.14v0.05c0.03,0.68,0.09,1.35,0.18,2.03
			c0.09,0.68,0.23,1.29,0.41,1.84c0.18,0.55,0.43,1,0.74,1.34c0.31,0.34,0.72,0.51,1.24,0.51c0.49,0,0.92-0.24,1.29-0.71
			c0.37-0.48,0.68-1.15,0.94-2.03c0.26-0.88,0.45-1.91,0.58-3.11c0.12-1.2,0.18-2.53,0.18-4.01v-0.41c0-0.15-0.01-0.33-0.02-0.53
			c-0.02-0.2-0.02-0.47-0.02-0.81l0.05-3.55c-0.43,1.29-0.95,2.29-1.57,2.99c-0.61,0.71-1.34,1.06-2.17,1.06
			c-0.55-0.15-1.04-0.54-1.45-1.15c-0.41-0.61-0.76-1.38-1.04-2.3c-0.28-0.92-0.49-1.93-0.65-3.04c-0.15-1.11-0.23-2.21-0.23-3.32
			c0-1.63,0.08-3.15,0.23-4.56c0.15-1.41,0.39-2.65,0.71-3.71c0.32-1.06,0.73-1.92,1.22-2.58c0.49-0.66,1.09-1.05,1.8-1.17
			c1.23,0.18,2.15,0.98,2.76,2.4C476.05,140.3,476.43,142.17,476.58,144.5z M475.34,143.17c0-0.06-0.01-0.12-0.02-0.16
			c-0.02-0.05-0.02-0.1-0.02-0.16v-0.09c-0.09-0.52-0.21-1.08-0.35-1.66c-0.14-0.58-0.31-1.13-0.51-1.64
			c-0.2-0.51-0.45-0.93-0.74-1.27c-0.29-0.34-0.64-0.51-1.04-0.51c-0.28,0-0.58,0.08-0.92,0.23c-0.34,0.15-0.66,0.57-0.97,1.24
			c-0.31,0.68-0.56,1.7-0.76,3.09c-0.2,1.38-0.3,3.3-0.3,5.76c0,2.86,0.25,5.11,0.76,6.77c0.51,1.66,1.11,2.49,1.82,2.49
			c0.31,0,0.66-0.16,1.06-0.48c0.4-0.32,0.77-0.84,1.11-1.57c0.34-0.72,0.61-1.67,0.83-2.83c0.21-1.17,0.31-2.58,0.28-4.24v-2.86
			c0-0.43-0.02-0.81-0.07-1.15c-0.05-0.34-0.1-0.69-0.16-1.06V143.17z"/>
		<path class="st6" d="M491.05,144.5c0.06,1.14,0.11,2.22,0.14,3.25c0.03,1.03,0.05,2.04,0.05,3.02v7.09c0,1.04-0.03,2.29-0.09,3.73
			c-0.06,1.44-0.22,2.83-0.48,4.15c-0.26,1.32-0.65,2.44-1.18,3.36c-0.52,0.92-1.23,1.38-2.12,1.38c-0.43,0-0.86-0.08-1.29-0.25
			c-0.43-0.17-0.82-0.5-1.17-0.99c-0.35-0.49-0.65-1.17-0.88-2.05c-0.23-0.88-0.35-2.03-0.35-3.48v-0.18l0.18-0.09
			c0.25,0,0.41,0.03,0.51,0.09c0.09,0.06,0.17,0.15,0.23,0.28l0.09-0.14v0.05c0.03,0.68,0.09,1.35,0.18,2.03
			c0.09,0.68,0.23,1.29,0.41,1.84c0.18,0.55,0.43,1,0.74,1.34c0.31,0.34,0.72,0.51,1.24,0.51c0.49,0,0.92-0.24,1.29-0.71
			c0.37-0.48,0.68-1.15,0.94-2.03c0.26-0.88,0.45-1.91,0.58-3.11c0.12-1.2,0.18-2.53,0.18-4.01v-0.41c0-0.15-0.01-0.33-0.02-0.53
			c-0.02-0.2-0.02-0.47-0.02-0.81l0.05-3.55c-0.43,1.29-0.95,2.29-1.57,2.99c-0.61,0.71-1.34,1.06-2.17,1.06
			c-0.55-0.15-1.04-0.54-1.45-1.15c-0.41-0.61-0.76-1.38-1.04-2.3c-0.28-0.92-0.49-1.93-0.65-3.04c-0.15-1.11-0.23-2.21-0.23-3.32
			c0-1.63,0.08-3.15,0.23-4.56c0.15-1.41,0.39-2.65,0.71-3.71c0.32-1.06,0.73-1.92,1.22-2.58c0.49-0.66,1.09-1.05,1.8-1.17
			c1.23,0.18,2.15,0.98,2.76,2.4C490.51,140.3,490.9,142.17,491.05,144.5z M489.81,143.17c0-0.06-0.01-0.12-0.02-0.16
			c-0.02-0.05-0.02-0.1-0.02-0.16v-0.09c-0.09-0.52-0.21-1.08-0.35-1.66c-0.14-0.58-0.31-1.13-0.51-1.64
			c-0.2-0.51-0.45-0.93-0.74-1.27c-0.29-0.34-0.64-0.51-1.04-0.51c-0.28,0-0.58,0.08-0.92,0.23c-0.34,0.15-0.66,0.57-0.97,1.24
			c-0.31,0.68-0.56,1.7-0.76,3.09c-0.2,1.38-0.3,3.3-0.3,5.76c0,2.86,0.25,5.11,0.76,6.77c0.51,1.66,1.11,2.49,1.82,2.49
			c0.31,0,0.66-0.16,1.06-0.48c0.4-0.32,0.77-0.84,1.11-1.57c0.34-0.72,0.61-1.67,0.83-2.83c0.21-1.17,0.31-2.58,0.28-4.24v-2.86
			c0-0.43-0.02-0.81-0.07-1.15c-0.05-0.34-0.1-0.69-0.16-1.06V143.17z"/>
		<path class="st6" d="M505.65,141.42c0,0.55-0.01,1.14-0.02,1.77c-0.02,0.63-0.02,1.31-0.02,2.05c-0.03,0.98-0.05,2.04-0.05,3.16
			c0,1.12,0,2.33,0,3.62c0,0.55,0.01,1.1,0.02,1.64c0.02,0.54,0.02,1.11,0.02,1.73c0.03,0.8,0.05,1.77,0.05,2.93
			c0,1.15,0,2.42,0,3.8v0.41c0.18-0.09,0.43-0.14,0.74-0.14c0.18,0,0.38,0.04,0.6,0.12c0.21,0.08,0.32,0.19,0.32,0.35
			c0,0.25-0.12,0.4-0.37,0.46c-0.25,0.06-0.46,0.09-0.65,0.09c-0.31,0-0.49-0.02-0.55-0.05v0.46c0.03,0.37,0.05,0.65,0.05,0.85
			c0,0.2,0,0.39,0,0.58v1.24c0,0.25,0.01,0.48,0.02,0.69c0.02,0.22,0.02,0.43,0.02,0.65c0,0.15,0,0.36,0,0.62
			c0,0.26-0.02,0.51-0.05,0.74c-0.03,0.23-0.08,0.43-0.14,0.6c-0.06,0.17-0.14,0.25-0.24,0.25c-0.16-0.06-0.31-0.14-0.46-0.23
			c-0.14-0.09-0.25-0.2-0.31-0.32c0.03-0.49,0.05-0.94,0.07-1.36c0.02-0.41,0.02-0.84,0.02-1.27c0-0.49-0.01-0.97-0.02-1.45
			c-0.02-0.48-0.04-0.97-0.07-1.5v-0.46c-0.25-0.06-0.46-0.1-0.65-0.12c-0.18-0.02-0.41-0.02-0.69-0.02h-1.43
			c-0.31,0-0.64,0.02-0.99,0.05c-0.35,0.03-0.7,0.08-1.04,0.14c-0.28,0.06-0.55,0.11-0.83,0.14c-0.28,0.03-0.55,0.05-0.83,0.05
			c-0.34,0-0.61-0.1-0.81-0.3c-0.2-0.2-0.33-0.47-0.39-0.81c0.43-1.57,0.85-3.09,1.27-4.58c0.41-1.49,0.85-3,1.31-4.54
			c0.68-2.27,1.37-4.65,2.1-7.12c0.72-2.47,1.39-4.95,2-7.44l0.51-2.03l0.28-0.18c0.03,0,0.08-0.01,0.14-0.02
			c0.06-0.02,0.11-0.02,0.14-0.02c0.16,0,0.3,0.04,0.41,0.12c0.11,0.08,0.21,0.24,0.29,0.48c0.08,0.25,0.14,0.62,0.17,1.13
			c0.03,0.51,0.05,1.19,0.05,2.05V141.42z M504.55,139.16v0.09c-0.61,2.49-1.24,4.84-1.89,7.05c-0.65,2.21-1.27,4.39-1.89,6.54
			c-0.4,1.41-0.8,2.86-1.2,4.35c-0.4,1.49-0.81,2.93-1.24,4.31v0.32c0,0.55,0.08,0.83,0.23,0.83c0.92,0,1.58-0.02,1.98-0.07
			c0.4-0.05,0.71-0.08,0.92-0.12v-0.05h1.57c0.25,0,0.49,0.01,0.74,0.02c0.25,0.02,0.54,0.05,0.88,0.12v-0.51
			c-0.03-0.4-0.05-0.78-0.05-1.15c0-0.37,0-0.72,0-1.06v-2.17c0-0.43,0.01-0.85,0.02-1.27c0.02-0.41,0.02-0.88,0.02-1.41v-5.8
			c0-0.8,0-1.61,0-2.42c0-0.81,0.02-1.6,0.05-2.37c0-0.28,0-0.61,0-0.99s0.01-0.77,0.02-1.15c0.02-0.38,0.02-0.76,0.02-1.13
			c0-0.37,0-0.69,0-0.97l0.01-1.38L504.55,139.16z"/>
	</g>
	<rect x="379.8" y="134.13" class="st7" width="286.94" height="47.72"/>
	<text transform="matrix(1 0 0 1 379.799 179.1948)" class="st8 st9 st10 st11">Since 1994</text>
</g>
</svg>
