<svg width="177" height="56" viewBox="0 0 177 56" fill="none" xmlns="http://www.w3.org/2000/svg">
<path fill-rule="evenodd" clip-rule="evenodd" d="M2.96742 38.1461C11.4012 52.1944 28.0327 50.5772 35.5983 42.2185C35.64 42.172 35.64 41.8879 35.475 41.9289C27.6505 43.8849 20.563 41.7094 15.7723 37.1726C5.45763 27.4016 6.55375 13.2722 14.5529 4.74774C15.9674 3.23973 17.8342 2.06319 19.5272 0.99957C19.7515 0.860243 19.5901 0.51056 19.3383 0.584321C5.03284 4.80693 -5.3599 24.2754 2.96742 38.1461Z" fill="#0078A8"></path>
<mask id="mask0_1402:2395" style="mask-type:alpha" maskUnits="userSpaceOnUse" x="0" y="0" width="36" height="49">
<path fill-rule="evenodd" clip-rule="evenodd" d="M2.96742 38.1461C11.4012 52.1944 28.0327 50.5772 35.5983 42.2185C35.64 42.172 35.64 41.8879 35.475 41.9289C27.6505 43.8849 20.563 41.7094 15.7723 37.1726C5.45763 27.4016 6.55375 13.2722 14.5529 4.74774C15.9674 3.23973 17.8342 2.06319 19.5272 0.99957C19.7515 0.860243 19.5901 0.51056 19.3383 0.584321C5.03284 4.80693 -5.3599 24.2754 2.96742 38.1461Z" fill="white"></path>
</mask>
<g mask="url(#mask0_1402:2395)">
</g>
<path fill-rule="evenodd" clip-rule="evenodd" d="M31.447 0.00855786C15.3821 0.484819 8.43114 16.0821 11.6973 26.9897C11.7151 27.0498 11.9554 27.1919 12.0024 27.0252C14.2665 19.0891 19.6433 13.8739 25.8653 11.8823C39.2635 7.59413 50.6326 15.635 53.8225 27.0097C54.3866 29.0232 54.4469 31.2697 54.4956 33.3077C54.5027 33.5763 54.8779 33.6082 54.9399 33.3478C58.5316 18.5144 47.3097 -0.461329 31.447 0.00855786Z" fill="#EF4056"></path>
<mask id="mask1_1402:2395" style="mask-type:alpha" maskUnits="userSpaceOnUse" x="10" y="0" width="46" height="34">
<path fill-rule="evenodd" clip-rule="evenodd" d="M31.447 0.00855786C15.3821 0.484819 8.43114 16.0821 11.6973 26.9897C11.7151 27.0498 11.9554 27.1919 12.0024 27.0252C14.2665 19.0891 19.6433 13.8739 25.8653 11.8823C39.2635 7.59413 50.6326 15.635 53.8225 27.0097C54.3866 29.0232 54.4469 31.2697 54.4956 33.3077C54.5027 33.5763 54.8779 33.6082 54.9399 33.3478C58.5316 18.5144 47.3097 -0.461329 31.447 0.00855786Z" fill="white"></path>
</mask>
<g mask="url(#mask1_1402:2395)">
</g>
<path fill-rule="evenodd" clip-rule="evenodd" d="M49.3623 44.4491C56.9935 29.9245 47.3147 15.9435 36.4812 13.3956C36.4217 13.381 36.1823 13.524 36.3003 13.6496C41.8607 19.6298 43.5705 27.0205 42.1391 33.5488C39.0565 47.6081 26.5913 53.6966 15.4021 50.8463C13.4219 50.3418 11.4974 49.2709 9.75394 48.2965C9.52425 48.1681 9.30964 48.485 9.49765 48.6717C20.2123 59.2815 41.8279 58.7897 49.3623 44.4491Z" fill="#FFD530"></path>
<mask id="mask2_1402:2395" style="mask-type:alpha" maskUnits="userSpaceOnUse" x="9" y="13" width="44" height="44">
<path fill-rule="evenodd" clip-rule="evenodd" d="M49.3623 44.4491C56.9935 29.9245 47.3147 15.9435 36.4812 13.3956C36.4217 13.381 36.1823 13.524 36.3003 13.6496C41.8607 19.6298 43.5705 27.0205 42.1391 33.5488C39.0565 47.6081 26.5913 53.6966 15.4021 50.8463C13.4219 50.3418 11.4974 49.2709 9.75394 48.2965C9.52425 48.1681 9.30964 48.485 9.49765 48.6717C20.2123 59.2815 41.8279 58.7897 49.3623 44.4491Z" fill="white"></path>
</mask>
<g mask="url(#mask2_1402:2395)">
</g>
<path fill-rule="evenodd" clip-rule="evenodd" d="M109.394 15.2172C109.394 12.7339 111.255 10.7852 113.768 10.7852C115.355 10.7852 116.381 11.4463 117.108 12.3888C117.192 12.4962 117.169 12.6556 117.062 12.7394L115.755 13.7811C115.652 13.8622 115.508 13.844 115.421 13.7447C114.979 13.2439 114.457 12.9406 113.744 12.9406C112.583 12.9406 111.765 13.9505 111.765 15.2172C111.764 16.4957 112.583 17.4938 113.744 17.4938C114.527 17.4938 115.018 17.1559 115.472 16.6323C115.557 16.5358 115.696 16.5167 115.799 16.5914L117.144 17.5748C117.256 17.6568 117.282 17.8207 117.197 17.9318C116.43 18.9326 115.395 19.6484 113.674 19.6484C111.302 19.6484 109.393 17.7861 109.394 15.2172ZM66.4453 15.2173C66.4453 12.734 68.3076 10.7852 70.8218 10.7852C72.4083 10.7852 73.4335 11.4464 74.1607 12.3889C74.2441 12.4963 74.2219 12.6557 74.1155 12.7395L72.8065 13.7812C72.7045 13.8623 72.56 13.8441 72.4722 13.7448C72.0306 13.244 71.5091 12.9407 70.797 12.9407C69.6361 12.9407 68.8176 13.9506 68.8176 15.2173C68.8176 16.4958 69.6361 17.4939 70.797 17.4939C71.5792 17.4939 72.0713 17.156 72.5254 16.6324C72.6096 16.5359 72.7489 16.5168 72.8526 16.5914L74.1962 17.5749C74.3088 17.6569 74.3345 17.8208 74.2503 17.9319C73.4832 18.9327 72.4482 19.6484 70.7251 19.6484C68.3538 19.6484 66.4453 17.7862 66.4453 15.2173ZM80.5999 15.0469L77.4925 18.2979V19.2595C77.4925 19.3815 77.3985 19.479 77.2796 19.479H75.6195C75.5016 19.479 75.4058 19.3815 75.4058 19.2595L75.4067 11.4071C75.4067 11.2851 75.5016 11.1877 75.6204 11.1877H77.2796C77.3985 11.1877 77.4925 11.2851 77.4925 11.4071V15.668L80.5999 12.4298V11.4071C80.5999 11.2851 80.6939 11.1877 80.8128 11.1877H82.472C82.5909 11.1877 82.6866 11.2851 82.6866 11.4071V19.2595C82.6866 19.3815 82.5909 19.479 82.472 19.479H80.8119C80.6939 19.479 80.5991 19.3815 80.5991 19.2595L80.5999 15.0469ZM90.0982 11.4071C90.0982 11.285 90.0042 11.1876 89.8845 11.1876H84.8925C84.7737 11.1876 84.6797 11.285 84.6797 11.4071V19.2604C84.6797 19.3815 84.7737 19.4789 84.8925 19.4789H87.7375C88.3441 19.4789 88.995 19.3696 89.5298 19.0773C90.2162 18.7121 90.7261 18.0301 90.7261 16.9228C90.7261 15.7171 90.2046 15.0833 89.5298 14.7545C88.8886 14.4385 88.1188 14.4021 87.5379 14.4021H86.7664V13.0872H89.8845C90.0042 13.0872 90.0982 12.9897 90.0982 12.8677V11.4071ZM97.6025 15.0469L94.496 18.2978V19.2594C94.496 19.3815 94.4011 19.4789 94.2822 19.4789H92.6221C92.5033 19.4789 92.4102 19.3815 92.4102 19.2594V11.4071C92.4102 11.285 92.5042 11.1876 92.623 11.1876H94.2822C94.4011 11.1876 94.496 11.285 94.496 11.4071V15.6679L97.6025 12.4297V11.4071C97.6025 11.285 97.6974 11.1876 97.8163 11.1876H99.4755C99.5943 11.1876 99.6901 11.285 99.6901 11.4071V19.2594C99.6901 19.3815 99.5943 19.4789 99.4755 19.4789H97.8154C97.6974 19.4789 97.6025 19.3815 97.6025 19.2594V15.0469ZM107.309 11.8332C106.717 11.3215 106.004 11.1876 105.341 11.1876H101.89C101.772 11.1876 101.676 11.285 101.676 11.4071V19.2604C101.676 19.3815 101.772 19.4789 101.89 19.4789H103.549C103.668 19.4789 103.763 19.3815 103.763 19.2604V17.1541H105.399C106.027 17.1541 106.655 17.032 107.226 16.5694C107.889 16.0458 108.316 15.1935 108.316 14.1708C108.316 13.1846 107.924 12.3568 107.309 11.8332ZM127.865 19.4802C128.055 19.4802 128.173 19.4073 128.221 19.237L128.588 17.9822H131.066L131.422 19.237C131.469 19.4073 131.588 19.4802 131.778 19.4802H133.462C133.604 19.4802 133.651 19.4073 133.651 19.3099C133.651 19.2693 133.643 19.2365 133.633 19.1984L133.628 19.176L131.079 11.3719C131.031 11.2134 130.925 11.1524 130.746 11.1524H128.991C128.814 11.1524 128.707 11.2134 128.66 11.3719L126.062 19.176L126.057 19.1984C126.047 19.2365 126.039 19.2693 126.039 19.3099C126.039 19.4073 126.086 19.4802 126.229 19.4802H127.865ZM134.621 13.9641C134.621 13.0872 134.953 12.2712 135.558 11.7841C136.091 11.3588 136.838 11.1876 137.632 11.1876H141.225C141.344 11.1876 141.439 11.285 141.439 11.4071V19.2604C141.439 19.3824 141.343 19.4789 141.225 19.4789H139.565C139.446 19.4789 139.351 19.3824 139.351 19.2604V16.7761H138.082L136.815 19.2604C136.719 19.4425 136.6 19.4789 136.412 19.4789H134.584C134.466 19.4789 134.395 19.4188 134.395 19.3095C134.395 19.2476 134.418 19.1748 134.466 19.0892L135.996 16.3627C135.83 16.2653 135.664 16.156 135.51 16.0094C134.869 15.4248 134.621 14.6944 134.621 13.9641ZM66.75 31.9196C66.75 32.0416 66.8449 32.1391 66.9637 32.1391H68.6239C68.7427 32.1391 68.8376 32.0416 68.8376 31.9196V25.7473H71.9557C72.0745 25.7473 72.1694 25.6499 72.1694 25.5279V24.0672C72.1694 23.9452 72.0745 23.8477 71.9557 23.8477H66.9637C66.8458 23.8477 66.7509 23.9452 66.7509 24.0672L66.75 31.9196ZM79.7352 23.8477C79.854 23.8477 79.9489 23.9452 79.9489 24.0672V25.5279C79.9489 25.6499 79.854 25.7473 79.7352 25.7473H75.7994V27.0131H79.1064C79.2253 27.0131 79.3201 27.1115 79.3201 27.2326L79.3193 28.6941C79.3193 28.8153 79.2253 28.9127 79.1064 28.9127H75.7994V30.2395H79.7352C79.8531 30.2395 79.948 30.3378 79.948 30.459V31.9205C79.948 32.0416 79.8531 32.1391 79.7352 32.1391H73.9247C73.8058 32.1391 73.7109 32.0416 73.7109 31.9205L73.7118 24.0672C73.7118 23.9452 73.8067 23.8477 73.9247 23.8477H79.7352ZM88.9006 24.0672C88.9006 23.9452 88.8066 23.8477 88.6877 23.8477H87.0276C86.9088 23.8477 86.8148 23.9452 86.8148 24.0672V27.0131H83.7304V24.0672C83.7304 23.9452 83.6364 23.8477 83.5184 23.8477H81.8583C81.7394 23.8477 81.6445 23.9452 81.6445 24.0672V31.9205C81.6445 32.0416 81.7394 32.1391 81.8574 32.1391H83.5175C83.6364 32.1391 83.7304 32.0416 83.7304 31.9205V28.9127H86.8139V31.9205C86.8139 32.0416 86.9088 32.1391 87.0276 32.1391H88.6877C88.8057 32.1391 88.8997 32.0416 88.8997 31.9205L88.9006 24.0672ZM96.9101 23.8477C97.0289 23.8477 97.1238 23.9452 97.1238 24.0672V25.5279C97.1238 25.6499 97.0289 25.7473 96.9101 25.7473H92.9743V27.0131H96.2822C96.4001 27.0131 96.495 27.1115 96.495 27.2326V28.6941C96.495 28.8153 96.4001 28.9127 96.2813 28.9127H92.9743V30.2395H96.9101C97.028 30.2395 97.1229 30.3378 97.1229 30.459V31.9205C97.1229 32.0416 97.028 32.1391 96.9101 32.1391H91.0996C90.9807 32.1391 90.8867 32.0416 90.8867 31.9205V24.0672C90.8867 23.9452 90.9816 23.8477 91.1004 23.8477H96.9101ZM104.453 24.4934C103.861 23.9816 103.148 23.8477 102.485 23.8477H99.034C98.9161 23.8477 98.8203 23.9452 98.8203 24.0672V31.9205C98.8203 32.0416 98.9161 32.1391 99.034 32.1391H100.693C100.812 32.1391 100.908 32.0416 100.908 31.9205V29.8142H102.543C103.172 29.8142 103.8 29.6922 104.369 29.2296C105.033 28.706 105.461 27.8536 105.461 26.831C105.461 25.8448 105.069 25.017 104.453 24.4934ZM112.276 27.7064L109.169 30.9574V31.919C109.169 32.041 109.074 32.1385 108.955 32.1385H107.295C107.176 32.1385 107.082 32.041 107.082 31.919V24.0666C107.082 23.9446 107.177 23.8471 107.296 23.8471H108.955C109.074 23.8471 109.169 23.9446 109.169 24.0666V28.3275L112.276 25.0893V24.0666C112.276 23.9446 112.37 23.8471 112.488 23.8471H114.148C114.267 23.8471 114.363 23.9446 114.363 24.0666L114.362 31.919C114.362 32.041 114.267 32.1385 114.148 32.1385H112.488C112.37 32.1385 112.275 32.041 112.275 31.919L112.276 27.7064ZM121.984 24.4934C121.391 23.9816 120.679 23.8477 120.016 23.8477H116.565C116.446 23.8477 116.352 23.9452 116.352 24.0672V31.9205C116.352 32.0416 116.446 32.1391 116.565 32.1391H118.224C118.343 32.1391 118.438 32.0416 118.438 31.9205V29.8142H120.074C120.703 29.8142 121.331 29.6922 121.9 29.2296C122.565 28.706 122.992 27.8536 122.992 26.831C122.992 25.8448 122.6 25.017 121.984 24.4934ZM125.388 30.3014C125.743 30.3014 126.016 30.2768 126.253 30.1794C126.442 30.1065 126.597 29.9973 126.751 29.8388L123.906 24.1528C123.847 24.0308 123.858 23.8477 124.072 23.8477H125.934C126.123 23.8477 126.229 23.9579 126.29 24.0918L127.819 27.6469L129.135 24.0918C129.194 23.9461 129.3 23.8477 129.49 23.8477H131.257C131.47 23.8477 131.483 24.0308 131.424 24.1528L129.122 29.6321C128.826 30.3378 128.47 30.8496 128.055 31.2384C127.344 31.9087 126.478 32.14 125.625 32.14H124.889C124.771 32.14 124.677 32.0425 124.677 31.9205V30.5209C124.677 30.3988 124.771 30.3014 124.889 30.3014H125.388ZM136.268 28.9136C136.683 30.9589 138.497 32.2493 140.56 32.2493C142.896 32.2493 144.924 30.6056 144.924 28.0003C144.924 25.4068 142.897 23.7267 140.56 23.7267C138.521 23.7267 136.731 24.9933 136.28 27.014H134.785V24.0681C134.785 23.9461 134.692 23.8478 134.573 23.8478H132.913C132.794 23.8478 132.699 23.9461 132.699 24.0681V31.9205C132.699 32.0426 132.794 32.14 132.913 32.14H134.572C134.691 32.14 134.785 32.0426 134.785 31.9205V28.9136H136.268ZM146.594 31.9205V24.0672C146.594 23.9461 146.689 23.8477 146.807 23.8477H148.468C148.586 23.8477 148.681 23.9461 148.681 24.0672V30.2404H151.219L151.219 24.0672C151.219 23.9461 151.313 23.8477 151.431 23.8477H153.092C153.211 23.8477 153.305 23.9461 153.305 24.0672L153.304 30.2404H155.843V24.0672C155.843 23.9461 155.937 23.8477 156.057 23.8477H157.715C157.835 23.8477 157.929 23.9461 157.929 24.0672V30.2404H159.756C159.874 30.2404 159.968 30.3378 159.968 30.4589V33.7955C159.968 33.9175 159.874 34.0141 159.756 34.0141H158.096C157.977 34.0141 157.882 33.9175 157.882 33.7955V32.14H146.807C146.689 32.14 146.594 32.0425 146.594 31.9205ZM162.49 32.1364C162.68 32.1364 162.797 32.0636 162.846 31.8933L163.213 30.6384H165.691L166.046 31.8933C166.094 32.0636 166.213 32.1364 166.403 32.1364H168.087C168.228 32.1364 168.276 32.0636 168.276 31.9661C168.276 31.9295 168.269 31.8997 168.26 31.866L168.26 31.8659L168.257 31.8529L168.253 31.8323L165.704 24.0281C165.656 23.8697 165.55 23.8087 165.371 23.8087H163.616C163.439 23.8087 163.332 23.8697 163.285 24.0281L160.686 31.8323C160.684 31.8427 160.682 31.8526 160.679 31.8621C160.671 31.8975 160.664 31.9281 160.664 31.9661C160.664 32.0636 160.711 32.1364 160.854 32.1364H162.49ZM169.246 26.6243C169.246 25.7473 169.577 24.9314 170.182 24.4442C170.716 24.0189 171.463 23.8477 172.257 23.8477H175.85C175.969 23.8477 176.064 23.9452 176.064 24.0672V31.9205C176.064 32.0425 175.968 32.1391 175.85 32.1391H174.19C174.071 32.1391 173.976 32.0425 173.976 31.9205V29.4363H172.707L171.439 31.9205C171.344 32.1026 171.225 32.1391 171.036 32.1391H169.209C169.091 32.1391 169.02 32.079 169.02 31.9688C169.02 31.9078 169.043 31.8349 169.091 31.7502L170.62 29.0229C170.454 28.9254 170.289 28.8162 170.135 28.6696C169.495 28.0849 169.246 27.3546 169.246 26.6243ZM74.4219 40.6721C74.4219 43.241 76.45 44.9212 78.7966 44.9212C81.1325 44.9212 83.1598 43.2775 83.1607 40.6721C83.1607 38.0786 81.1325 36.3985 78.7966 36.3985C76.45 36.3985 74.4219 38.0786 74.4219 40.6721ZM93.3062 44.5807C93.3062 44.7027 93.2113 44.8001 93.0925 44.8001H91.5042C91.3853 44.8001 91.2904 44.7027 91.2904 44.5807L91.2913 40.2342L90.0453 42.6082C89.962 42.754 89.891 42.8277 89.7128 42.8277H88.4916C88.3151 42.8277 88.2433 42.754 88.1599 42.6082L86.8448 40.2342L86.8439 44.5807C86.8439 44.7027 86.749 44.8001 86.631 44.8001H85.0419C84.923 44.8001 84.8281 44.7027 84.8281 44.5807V36.7274C84.8281 36.6063 84.9239 36.5079 85.0427 36.5079H86.7135C86.8802 36.5079 86.9867 36.5325 87.094 36.7274L89.0618 40.3562L91.0297 36.7274C91.137 36.5325 91.2434 36.5079 91.4093 36.5079H93.0934C93.2122 36.5079 93.3062 36.6063 93.3062 36.7274V44.5807ZM100.28 44.5798C100.28 44.7018 100.375 44.7992 100.493 44.7992H102.153C102.273 44.7992 102.366 44.7018 102.366 44.5798L102.367 36.7274C102.367 36.6053 102.273 36.5079 102.153 36.5079H95.5145C95.3948 36.5079 95.3017 36.6053 95.3017 36.7274L95.3008 44.5798C95.3008 44.7018 95.3948 44.7992 95.5145 44.7992H97.1738C97.2926 44.7992 97.3866 44.7018 97.3866 44.5798V38.4075H100.281L100.28 44.5798ZM105.813 44.5544C105.766 44.7247 105.648 44.7976 105.459 44.7976H103.822C103.679 44.7976 103.632 44.7247 103.632 44.6273C103.632 44.5876 103.64 44.556 103.649 44.5187L103.655 44.4934L106.252 36.6893C106.299 36.5308 106.407 36.4698 106.584 36.4698H108.34C108.517 36.4698 108.624 36.5308 108.673 36.6893L111.22 44.4934L111.227 44.5187C111.236 44.556 111.243 44.5876 111.243 44.6273C111.243 44.7247 111.196 44.7976 111.055 44.7976H109.37C109.181 44.7976 109.062 44.7247 109.015 44.5544L108.659 43.2996H106.181L105.813 44.5544ZM119.768 36.7274C119.768 36.6053 119.673 36.5079 119.554 36.5079H117.894C117.775 36.5079 117.681 36.6053 117.681 36.7274V39.6733H114.598V36.7274C114.598 36.6053 114.504 36.5079 114.385 36.5079H112.725C112.606 36.5079 112.512 36.6053 112.512 36.7274V44.5807C112.512 44.7018 112.606 44.7992 112.724 44.7992H114.384C114.503 44.7992 114.598 44.7018 114.598 44.5807V41.5728H117.68V44.5807C117.68 44.7018 117.775 44.7992 117.894 44.7992H119.554C119.672 44.7992 119.767 44.7018 119.767 44.5807L119.768 36.7274ZM126.95 40.3672L123.844 43.6181V44.5798C123.844 44.7018 123.749 44.7992 123.63 44.7992H121.97C121.851 44.7992 121.758 44.7018 121.758 44.5798V36.7274C121.758 36.6053 121.852 36.5079 121.971 36.5079H123.63C123.749 36.5079 123.844 36.6053 123.844 36.7274V40.9882L126.95 37.75V36.7274C126.95 36.6053 127.045 36.5079 127.164 36.5079H128.823C128.942 36.5079 129.038 36.6053 129.038 36.7274V44.5798C129.038 44.7018 128.942 44.7992 128.823 44.7992H127.163C127.045 44.7992 126.95 44.7018 126.95 44.5798V40.3672ZM131.667 37.1044C131.062 37.5916 130.73 38.4075 130.73 39.2844C130.73 40.0148 130.979 40.7451 131.62 41.3297C131.774 41.4763 131.94 41.5856 132.106 41.683L130.576 44.4104C130.529 44.4951 130.504 44.5679 130.504 44.6298C130.504 44.7391 130.576 44.7992 130.694 44.7992H132.521C132.709 44.7992 132.828 44.7628 132.924 44.5807L134.192 42.0965H135.46V44.5807C135.46 44.7027 135.555 44.7992 135.674 44.7992H137.334C137.452 44.7992 137.548 44.7027 137.548 44.5807V36.7274C137.548 36.6053 137.453 36.5079 137.334 36.5079H133.742C132.947 36.5079 132.2 36.6791 131.667 37.1044ZM118.334 11.1837H119.985C120.105 11.1837 120.202 11.2839 120.202 11.4068V14.2197C120.202 14.3327 120.339 14.3836 120.41 14.298L122.918 11.2629C122.959 11.2128 123.02 11.1837 123.083 11.1837H125.062C125.249 11.1837 125.32 11.354 125.184 11.5152L122.316 14.8809L122.612 14.879C122.685 14.879 122.754 14.9173 122.795 14.981L125.421 19.1335C125.515 19.2828 125.561 19.4786 125.324 19.4786H123.176C123.099 19.4786 123.028 19.4377 122.989 19.3703L121.137 16.4663C121.102 16.408 121.022 16.3998 120.977 16.4508L120.258 17.2895C120.222 17.3305 120.202 17.3833 120.202 17.4388V19.2555C120.202 19.3785 120.105 19.4786 119.985 19.4786H118.334C118.215 19.4786 118.117 19.3785 118.117 19.2555V11.4068C118.117 11.2839 118.215 11.1837 118.334 11.1837ZM68.6168 36.4962H66.9673C66.8467 36.4962 66.75 36.5964 66.75 36.7193V44.568C66.75 44.691 66.8467 44.7911 66.9673 44.7911H68.6168C68.7365 44.7911 68.834 44.691 68.834 44.568V42.7513C68.834 42.6958 68.8544 42.6429 68.8908 42.602L69.6091 41.7633C69.6544 41.7123 69.7342 41.7205 69.7688 41.7788L71.6222 44.6828C71.6612 44.7501 71.7313 44.7911 71.8085 44.7911H73.9563C74.1931 44.7911 74.1479 44.5944 74.053 44.446L71.4271 40.2935C71.3863 40.2298 71.3172 40.1915 71.2435 40.1915L70.9482 40.1933L73.8171 36.8277C73.9528 36.6665 73.8818 36.4962 73.6947 36.4962H71.7153C71.6524 36.4962 71.5921 36.5253 71.5504 36.5754L69.0424 39.6105C68.9715 39.6961 68.834 39.6451 68.834 39.5322V36.7193C68.834 36.5964 68.7365 36.4962 68.6168 36.4962ZM88.1372 16.2392C87.9474 16.1655 87.6867 16.1172 87.3666 16.1172H86.7617V17.7363H87.5333C87.8055 17.7363 88.0663 17.6999 88.2561 17.5906C88.4583 17.4686 88.5886 17.2619 88.5886 16.9213C88.5886 16.6044 88.4583 16.3731 88.1372 16.2392ZM105.078 13.0625C105.326 13.0625 105.576 13.1117 105.777 13.2455C106.026 13.404 106.193 13.6954 106.193 14.1707C106.193 14.6579 106.026 14.9502 105.765 15.1078C105.576 15.2298 105.326 15.2781 105.077 15.2781H103.762V13.0625H105.078ZM129.845 13.7422L129.098 16.2628H130.568L129.845 13.7422ZM137.079 13.2106C137.268 13.064 137.528 13.0039 137.778 13.0039H139.354V14.9754H137.801C137.552 14.9754 137.303 14.9153 137.114 14.7933C136.889 14.6348 136.746 14.3671 136.746 13.9901C136.746 13.625 136.864 13.3691 137.079 13.2106ZM102.921 25.9057C102.721 25.7718 102.471 25.7227 102.222 25.7227H100.906V27.9382H102.222C102.471 27.9382 102.721 27.89 102.91 27.7679C103.17 27.6104 103.336 27.3181 103.336 26.8309C103.336 26.3555 103.17 26.0641 102.921 25.9057ZM119.754 25.7227C120.003 25.7227 120.251 25.7718 120.452 25.9057C120.702 26.0641 120.868 26.3555 120.868 26.8309C120.868 27.3181 120.702 27.6104 120.441 27.7679C120.251 27.89 120.003 27.9382 119.754 27.9382H118.438V25.7227H119.754ZM140.561 25.7344C139.304 25.7344 138.402 26.6842 138.402 27.9991C138.402 29.3141 139.304 30.2511 140.561 30.2511C141.818 30.2511 142.707 29.3141 142.708 27.9991C142.708 26.6842 141.818 25.7344 140.561 25.7344ZM163.723 28.923L164.471 26.4023L165.193 28.923H163.723ZM172.403 25.6602C172.154 25.6602 171.893 25.7203 171.704 25.8669C171.49 26.0253 171.371 26.2812 171.371 26.6464C171.371 27.0234 171.514 27.2911 171.739 27.4495C171.929 27.5716 172.177 27.6317 172.426 27.6317H173.98V25.6602H172.403ZM76.6399 40.6709C76.6399 39.356 77.5409 38.4062 78.7976 38.4062C80.0551 38.4062 80.9437 39.356 80.9437 40.6709C80.9437 41.9859 80.0542 42.9229 78.7976 42.9229C77.5409 42.9229 76.6399 41.9859 76.6399 40.6709ZM107.439 39.0625L106.691 41.5831H108.162L107.439 39.0625ZM133.188 38.527C133.377 38.3804 133.638 38.3203 133.888 38.3203H135.464V40.2918H133.91C133.662 40.2918 133.412 40.2317 133.224 40.1097C132.998 39.9513 132.855 39.6835 132.855 39.3065C132.855 38.9414 132.973 38.6855 133.188 38.527Z" fill="#1F1F22"></path>
<mask id="mask3_1402:2395" style="mask-type:alpha" maskUnits="userSpaceOnUse" x="66" y="10" width="111" height="35">
<path fill-rule="evenodd" clip-rule="evenodd" d="M109.394 15.2172C109.394 12.7339 111.255 10.7852 113.768 10.7852C115.355 10.7852 116.381 11.4463 117.108 12.3888C117.192 12.4962 117.169 12.6556 117.062 12.7394L115.755 13.7811C115.652 13.8622 115.508 13.844 115.421 13.7447C114.979 13.2439 114.457 12.9406 113.744 12.9406C112.583 12.9406 111.765 13.9505 111.765 15.2172C111.764 16.4957 112.583 17.4938 113.744 17.4938C114.527 17.4938 115.018 17.1559 115.472 16.6323C115.557 16.5358 115.696 16.5167 115.799 16.5914L117.144 17.5748C117.256 17.6568 117.282 17.8207 117.197 17.9318C116.43 18.9326 115.395 19.6484 113.674 19.6484C111.302 19.6484 109.393 17.7861 109.394 15.2172ZM66.4453 15.2173C66.4453 12.734 68.3076 10.7852 70.8218 10.7852C72.4083 10.7852 73.4335 11.4464 74.1607 12.3889C74.2441 12.4963 74.2219 12.6557 74.1155 12.7395L72.8065 13.7812C72.7045 13.8623 72.56 13.8441 72.4722 13.7448C72.0306 13.244 71.5091 12.9407 70.797 12.9407C69.6361 12.9407 68.8176 13.9506 68.8176 15.2173C68.8176 16.4958 69.6361 17.4939 70.797 17.4939C71.5792 17.4939 72.0713 17.156 72.5254 16.6324C72.6096 16.5359 72.7489 16.5168 72.8526 16.5914L74.1962 17.5749C74.3088 17.6569 74.3345 17.8208 74.2503 17.9319C73.4832 18.9327 72.4482 19.6484 70.7251 19.6484C68.3538 19.6484 66.4453 17.7862 66.4453 15.2173ZM80.5999 15.0469L77.4925 18.2979V19.2595C77.4925 19.3815 77.3985 19.479 77.2796 19.479H75.6195C75.5016 19.479 75.4058 19.3815 75.4058 19.2595L75.4067 11.4071C75.4067 11.2851 75.5016 11.1877 75.6204 11.1877H77.2796C77.3985 11.1877 77.4925 11.2851 77.4925 11.4071V15.668L80.5999 12.4298V11.4071C80.5999 11.2851 80.6939 11.1877 80.8128 11.1877H82.472C82.5909 11.1877 82.6866 11.2851 82.6866 11.4071V19.2595C82.6866 19.3815 82.5909 19.479 82.472 19.479H80.8119C80.6939 19.479 80.5991 19.3815 80.5991 19.2595L80.5999 15.0469ZM90.0982 11.4071C90.0982 11.285 90.0042 11.1876 89.8845 11.1876H84.8925C84.7737 11.1876 84.6797 11.285 84.6797 11.4071V19.2604C84.6797 19.3815 84.7737 19.4789 84.8925 19.4789H87.7375C88.3441 19.4789 88.995 19.3696 89.5298 19.0773C90.2162 18.7121 90.7261 18.0301 90.7261 16.9228C90.7261 15.7171 90.2046 15.0833 89.5298 14.7545C88.8886 14.4385 88.1188 14.4021 87.5379 14.4021H86.7664V13.0872H89.8845C90.0042 13.0872 90.0982 12.9897 90.0982 12.8677V11.4071ZM97.6025 15.0469L94.496 18.2978V19.2594C94.496 19.3815 94.4011 19.4789 94.2822 19.4789H92.6221C92.5033 19.4789 92.4102 19.3815 92.4102 19.2594V11.4071C92.4102 11.285 92.5042 11.1876 92.623 11.1876H94.2822C94.4011 11.1876 94.496 11.285 94.496 11.4071V15.6679L97.6025 12.4297V11.4071C97.6025 11.285 97.6974 11.1876 97.8163 11.1876H99.4755C99.5943 11.1876 99.6901 11.285 99.6901 11.4071V19.2594C99.6901 19.3815 99.5943 19.4789 99.4755 19.4789H97.8154C97.6974 19.4789 97.6025 19.3815 97.6025 19.2594V15.0469ZM107.309 11.8332C106.717 11.3215 106.004 11.1876 105.341 11.1876H101.89C101.772 11.1876 101.676 11.285 101.676 11.4071V19.2604C101.676 19.3815 101.772 19.4789 101.89 19.4789H103.549C103.668 19.4789 103.763 19.3815 103.763 19.2604V17.1541H105.399C106.027 17.1541 106.655 17.032 107.226 16.5694C107.889 16.0458 108.316 15.1935 108.316 14.1708C108.316 13.1846 107.924 12.3568 107.309 11.8332ZM127.865 19.4802C128.055 19.4802 128.173 19.4073 128.221 19.237L128.588 17.9822H131.066L131.422 19.237C131.469 19.4073 131.588 19.4802 131.778 19.4802H133.462C133.604 19.4802 133.651 19.4073 133.651 19.3099C133.651 19.2693 133.643 19.2365 133.633 19.1984L133.628 19.176L131.079 11.3719C131.031 11.2134 130.925 11.1524 130.746 11.1524H128.991C128.814 11.1524 128.707 11.2134 128.66 11.3719L126.062 19.176L126.057 19.1984C126.047 19.2365 126.039 19.2693 126.039 19.3099C126.039 19.4073 126.086 19.4802 126.229 19.4802H127.865ZM134.621 13.9641C134.621 13.0872 134.953 12.2712 135.558 11.7841C136.091 11.3588 136.838 11.1876 137.632 11.1876H141.225C141.344 11.1876 141.439 11.285 141.439 11.4071V19.2604C141.439 19.3824 141.343 19.4789 141.225 19.4789H139.565C139.446 19.4789 139.351 19.3824 139.351 19.2604V16.7761H138.082L136.815 19.2604C136.719 19.4425 136.6 19.4789 136.412 19.4789H134.584C134.466 19.4789 134.395 19.4188 134.395 19.3095C134.395 19.2476 134.418 19.1748 134.466 19.0892L135.996 16.3627C135.83 16.2653 135.664 16.156 135.51 16.0094C134.869 15.4248 134.621 14.6944 134.621 13.9641ZM66.75 31.9196C66.75 32.0416 66.8449 32.1391 66.9637 32.1391H68.6239C68.7427 32.1391 68.8376 32.0416 68.8376 31.9196V25.7473H71.9557C72.0745 25.7473 72.1694 25.6499 72.1694 25.5279V24.0672C72.1694 23.9452 72.0745 23.8477 71.9557 23.8477H66.9637C66.8458 23.8477 66.7509 23.9452 66.7509 24.0672L66.75 31.9196ZM79.7352 23.8477C79.854 23.8477 79.9489 23.9452 79.9489 24.0672V25.5279C79.9489 25.6499 79.854 25.7473 79.7352 25.7473H75.7994V27.0131H79.1064C79.2253 27.0131 79.3201 27.1115 79.3201 27.2326L79.3193 28.6941C79.3193 28.8153 79.2253 28.9127 79.1064 28.9127H75.7994V30.2395H79.7352C79.8531 30.2395 79.948 30.3378 79.948 30.459V31.9205C79.948 32.0416 79.8531 32.1391 79.7352 32.1391H73.9247C73.8058 32.1391 73.7109 32.0416 73.7109 31.9205L73.7118 24.0672C73.7118 23.9452 73.8067 23.8477 73.9247 23.8477H79.7352ZM88.9006 24.0672C88.9006 23.9452 88.8066 23.8477 88.6877 23.8477H87.0276C86.9088 23.8477 86.8148 23.9452 86.8148 24.0672V27.0131H83.7304V24.0672C83.7304 23.9452 83.6364 23.8477 83.5184 23.8477H81.8583C81.7394 23.8477 81.6445 23.9452 81.6445 24.0672V31.9205C81.6445 32.0416 81.7394 32.1391 81.8574 32.1391H83.5175C83.6364 32.1391 83.7304 32.0416 83.7304 31.9205V28.9127H86.8139V31.9205C86.8139 32.0416 86.9088 32.1391 87.0276 32.1391H88.6877C88.8057 32.1391 88.8997 32.0416 88.8997 31.9205L88.9006 24.0672ZM96.9101 23.8477C97.0289 23.8477 97.1238 23.9452 97.1238 24.0672V25.5279C97.1238 25.6499 97.0289 25.7473 96.9101 25.7473H92.9743V27.0131H96.2822C96.4001 27.0131 96.495 27.1115 96.495 27.2326V28.6941C96.495 28.8153 96.4001 28.9127 96.2813 28.9127H92.9743V30.2395H96.9101C97.028 30.2395 97.1229 30.3378 97.1229 30.459V31.9205C97.1229 32.0416 97.028 32.1391 96.9101 32.1391H91.0996C90.9807 32.1391 90.8867 32.0416 90.8867 31.9205V24.0672C90.8867 23.9452 90.9816 23.8477 91.1004 23.8477H96.9101ZM104.453 24.4934C103.861 23.9816 103.148 23.8477 102.485 23.8477H99.034C98.9161 23.8477 98.8203 23.9452 98.8203 24.0672V31.9205C98.8203 32.0416 98.9161 32.1391 99.034 32.1391H100.693C100.812 32.1391 100.908 32.0416 100.908 31.9205V29.8142H102.543C103.172 29.8142 103.8 29.6922 104.369 29.2296C105.033 28.706 105.461 27.8536 105.461 26.831C105.461 25.8448 105.069 25.017 104.453 24.4934ZM112.276 27.7064L109.169 30.9574V31.919C109.169 32.041 109.074 32.1385 108.955 32.1385H107.295C107.176 32.1385 107.082 32.041 107.082 31.919V24.0666C107.082 23.9446 107.177 23.8471 107.296 23.8471H108.955C109.074 23.8471 109.169 23.9446 109.169 24.0666V28.3275L112.276 25.0893V24.0666C112.276 23.9446 112.37 23.8471 112.488 23.8471H114.148C114.267 23.8471 114.363 23.9446 114.363 24.0666L114.362 31.919C114.362 32.041 114.267 32.1385 114.148 32.1385H112.488C112.37 32.1385 112.275 32.041 112.275 31.919L112.276 27.7064ZM121.984 24.4934C121.391 23.9816 120.679 23.8477 120.016 23.8477H116.565C116.446 23.8477 116.352 23.9452 116.352 24.0672V31.9205C116.352 32.0416 116.446 32.1391 116.565 32.1391H118.224C118.343 32.1391 118.438 32.0416 118.438 31.9205V29.8142H120.074C120.703 29.8142 121.331 29.6922 121.9 29.2296C122.565 28.706 122.992 27.8536 122.992 26.831C122.992 25.8448 122.6 25.017 121.984 24.4934ZM125.388 30.3014C125.743 30.3014 126.016 30.2768 126.253 30.1794C126.442 30.1065 126.597 29.9973 126.751 29.8388L123.906 24.1528C123.847 24.0308 123.858 23.8477 124.072 23.8477H125.934C126.123 23.8477 126.229 23.9579 126.29 24.0918L127.819 27.6469L129.135 24.0918C129.194 23.9461 129.3 23.8477 129.49 23.8477H131.257C131.47 23.8477 131.483 24.0308 131.424 24.1528L129.122 29.6321C128.826 30.3378 128.47 30.8496 128.055 31.2384C127.344 31.9087 126.478 32.14 125.625 32.14H124.889C124.771 32.14 124.677 32.0425 124.677 31.9205V30.5209C124.677 30.3988 124.771 30.3014 124.889 30.3014H125.388ZM136.268 28.9136C136.683 30.9589 138.497 32.2493 140.56 32.2493C142.896 32.2493 144.924 30.6056 144.924 28.0003C144.924 25.4068 142.897 23.7267 140.56 23.7267C138.521 23.7267 136.731 24.9933 136.28 27.014H134.785V24.0681C134.785 23.9461 134.692 23.8478 134.573 23.8478H132.913C132.794 23.8478 132.699 23.9461 132.699 24.0681V31.9205C132.699 32.0426 132.794 32.14 132.913 32.14H134.572C134.691 32.14 134.785 32.0426 134.785 31.9205V28.9136H136.268ZM146.594 31.9205V24.0672C146.594 23.9461 146.689 23.8477 146.807 23.8477H148.468C148.586 23.8477 148.681 23.9461 148.681 24.0672V30.2404H151.219L151.219 24.0672C151.219 23.9461 151.313 23.8477 151.431 23.8477H153.092C153.211 23.8477 153.305 23.9461 153.305 24.0672L153.304 30.2404H155.843V24.0672C155.843 23.9461 155.937 23.8477 156.057 23.8477H157.715C157.835 23.8477 157.929 23.9461 157.929 24.0672V30.2404H159.756C159.874 30.2404 159.968 30.3378 159.968 30.4589V33.7955C159.968 33.9175 159.874 34.0141 159.756 34.0141H158.096C157.977 34.0141 157.882 33.9175 157.882 33.7955V32.14H146.807C146.689 32.14 146.594 32.0425 146.594 31.9205ZM162.49 32.1364C162.68 32.1364 162.797 32.0636 162.846 31.8933L163.213 30.6384H165.691L166.046 31.8933C166.094 32.0636 166.213 32.1364 166.403 32.1364H168.087C168.228 32.1364 168.276 32.0636 168.276 31.9661C168.276 31.9295 168.269 31.8997 168.26 31.866L168.26 31.8659L168.257 31.8529L168.253 31.8323L165.704 24.0281C165.656 23.8697 165.55 23.8087 165.371 23.8087H163.616C163.439 23.8087 163.332 23.8697 163.285 24.0281L160.686 31.8323C160.684 31.8427 160.682 31.8526 160.679 31.8621C160.671 31.8975 160.664 31.9281 160.664 31.9661C160.664 32.0636 160.711 32.1364 160.854 32.1364H162.49ZM169.246 26.6243C169.246 25.7473 169.577 24.9314 170.182 24.4442C170.716 24.0189 171.463 23.8477 172.257 23.8477H175.85C175.969 23.8477 176.064 23.9452 176.064 24.0672V31.9205C176.064 32.0425 175.968 32.1391 175.85 32.1391H174.19C174.071 32.1391 173.976 32.0425 173.976 31.9205V29.4363H172.707L171.439 31.9205C171.344 32.1026 171.225 32.1391 171.036 32.1391H169.209C169.091 32.1391 169.02 32.079 169.02 31.9688C169.02 31.9078 169.043 31.8349 169.091 31.7502L170.62 29.0229C170.454 28.9254 170.289 28.8162 170.135 28.6696C169.495 28.0849 169.246 27.3546 169.246 26.6243ZM74.4219 40.6721C74.4219 43.241 76.45 44.9212 78.7966 44.9212C81.1325 44.9212 83.1598 43.2775 83.1607 40.6721C83.1607 38.0786 81.1325 36.3985 78.7966 36.3985C76.45 36.3985 74.4219 38.0786 74.4219 40.6721ZM93.3062 44.5807C93.3062 44.7027 93.2113 44.8001 93.0925 44.8001H91.5042C91.3853 44.8001 91.2904 44.7027 91.2904 44.5807L91.2913 40.2342L90.0453 42.6082C89.962 42.754 89.891 42.8277 89.7128 42.8277H88.4916C88.3151 42.8277 88.2433 42.754 88.1599 42.6082L86.8448 40.2342L86.8439 44.5807C86.8439 44.7027 86.749 44.8001 86.631 44.8001H85.0419C84.923 44.8001 84.8281 44.7027 84.8281 44.5807V36.7274C84.8281 36.6063 84.9239 36.5079 85.0427 36.5079H86.7135C86.8802 36.5079 86.9867 36.5325 87.094 36.7274L89.0618 40.3562L91.0297 36.7274C91.137 36.5325 91.2434 36.5079 91.4093 36.5079H93.0934C93.2122 36.5079 93.3062 36.6063 93.3062 36.7274V44.5807ZM100.28 44.5798C100.28 44.7018 100.375 44.7992 100.493 44.7992H102.153C102.273 44.7992 102.366 44.7018 102.366 44.5798L102.367 36.7274C102.367 36.6053 102.273 36.5079 102.153 36.5079H95.5145C95.3948 36.5079 95.3017 36.6053 95.3017 36.7274L95.3008 44.5798C95.3008 44.7018 95.3948 44.7992 95.5145 44.7992H97.1738C97.2926 44.7992 97.3866 44.7018 97.3866 44.5798V38.4075H100.281L100.28 44.5798ZM105.813 44.5544C105.766 44.7247 105.648 44.7976 105.459 44.7976H103.822C103.679 44.7976 103.632 44.7247 103.632 44.6273C103.632 44.5876 103.64 44.556 103.649 44.5187L103.655 44.4934L106.252 36.6893C106.299 36.5308 106.407 36.4698 106.584 36.4698H108.34C108.517 36.4698 108.624 36.5308 108.673 36.6893L111.22 44.4934L111.227 44.5187C111.236 44.556 111.243 44.5876 111.243 44.6273C111.243 44.7247 111.196 44.7976 111.055 44.7976H109.37C109.181 44.7976 109.062 44.7247 109.015 44.5544L108.659 43.2996H106.181L105.813 44.5544ZM119.768 36.7274C119.768 36.6053 119.673 36.5079 119.554 36.5079H117.894C117.775 36.5079 117.681 36.6053 117.681 36.7274V39.6733H114.598V36.7274C114.598 36.6053 114.504 36.5079 114.385 36.5079H112.725C112.606 36.5079 112.512 36.6053 112.512 36.7274V44.5807C112.512 44.7018 112.606 44.7992 112.724 44.7992H114.384C114.503 44.7992 114.598 44.7018 114.598 44.5807V41.5728H117.68V44.5807C117.68 44.7018 117.775 44.7992 117.894 44.7992H119.554C119.672 44.7992 119.767 44.7018 119.767 44.5807L119.768 36.7274ZM126.95 40.3672L123.844 43.6181V44.5798C123.844 44.7018 123.749 44.7992 123.63 44.7992H121.97C121.851 44.7992 121.758 44.7018 121.758 44.5798V36.7274C121.758 36.6053 121.852 36.5079 121.971 36.5079H123.63C123.749 36.5079 123.844 36.6053 123.844 36.7274V40.9882L126.95 37.75V36.7274C126.95 36.6053 127.045 36.5079 127.164 36.5079H128.823C128.942 36.5079 129.038 36.6053 129.038 36.7274V44.5798C129.038 44.7018 128.942 44.7992 128.823 44.7992H127.163C127.045 44.7992 126.95 44.7018 126.95 44.5798V40.3672ZM131.667 37.1044C131.062 37.5916 130.73 38.4075 130.73 39.2844C130.73 40.0148 130.979 40.7451 131.62 41.3297C131.774 41.4763 131.94 41.5856 132.106 41.683L130.576 44.4104C130.529 44.4951 130.504 44.5679 130.504 44.6298C130.504 44.7391 130.576 44.7992 130.694 44.7992H132.521C132.709 44.7992 132.828 44.7628 132.924 44.5807L134.192 42.0965H135.46V44.5807C135.46 44.7027 135.555 44.7992 135.674 44.7992H137.334C137.452 44.7992 137.548 44.7027 137.548 44.5807V36.7274C137.548 36.6053 137.453 36.5079 137.334 36.5079H133.742C132.947 36.5079 132.2 36.6791 131.667 37.1044ZM118.334 11.1837H119.985C120.105 11.1837 120.202 11.2839 120.202 11.4068V14.2197C120.202 14.3327 120.339 14.3836 120.41 14.298L122.918 11.2629C122.959 11.2128 123.02 11.1837 123.083 11.1837H125.062C125.249 11.1837 125.32 11.354 125.184 11.5152L122.316 14.8809L122.612 14.879C122.685 14.879 122.754 14.9173 122.795 14.981L125.421 19.1335C125.515 19.2828 125.561 19.4786 125.324 19.4786H123.176C123.099 19.4786 123.028 19.4377 122.989 19.3703L121.137 16.4663C121.102 16.408 121.022 16.3998 120.977 16.4508L120.258 17.2895C120.222 17.3305 120.202 17.3833 120.202 17.4388V19.2555C120.202 19.3785 120.105 19.4786 119.985 19.4786H118.334C118.215 19.4786 118.117 19.3785 118.117 19.2555V11.4068C118.117 11.2839 118.215 11.1837 118.334 11.1837ZM68.6168 36.4962H66.9673C66.8467 36.4962 66.75 36.5964 66.75 36.7193V44.568C66.75 44.691 66.8467 44.7911 66.9673 44.7911H68.6168C68.7365 44.7911 68.834 44.691 68.834 44.568V42.7513C68.834 42.6958 68.8544 42.6429 68.8908 42.602L69.6091 41.7633C69.6544 41.7123 69.7342 41.7205 69.7688 41.7788L71.6222 44.6828C71.6612 44.7501 71.7313 44.7911 71.8085 44.7911H73.9563C74.1931 44.7911 74.1479 44.5944 74.053 44.446L71.4271 40.2935C71.3863 40.2298 71.3172 40.1915 71.2435 40.1915L70.9482 40.1933L73.8171 36.8277C73.9528 36.6665 73.8818 36.4962 73.6947 36.4962H71.7153C71.6524 36.4962 71.5921 36.5253 71.5504 36.5754L69.0424 39.6105C68.9715 39.6961 68.834 39.6451 68.834 39.5322V36.7193C68.834 36.5964 68.7365 36.4962 68.6168 36.4962ZM88.1372 16.2392C87.9474 16.1655 87.6867 16.1172 87.3666 16.1172H86.7617V17.7363H87.5333C87.8055 17.7363 88.0663 17.6999 88.2561 17.5906C88.4583 17.4686 88.5886 17.2619 88.5886 16.9213C88.5886 16.6044 88.4583 16.3731 88.1372 16.2392ZM105.078 13.0625C105.326 13.0625 105.576 13.1117 105.777 13.2455C106.026 13.404 106.193 13.6954 106.193 14.1707C106.193 14.6579 106.026 14.9502 105.765 15.1078C105.576 15.2298 105.326 15.2781 105.077 15.2781H103.762V13.0625H105.078ZM129.845 13.7422L129.098 16.2628H130.568L129.845 13.7422ZM137.079 13.2106C137.268 13.064 137.528 13.0039 137.778 13.0039H139.354V14.9754H137.801C137.552 14.9754 137.303 14.9153 137.114 14.7933C136.889 14.6348 136.746 14.3671 136.746 13.9901C136.746 13.625 136.864 13.3691 137.079 13.2106ZM102.921 25.9057C102.721 25.7718 102.471 25.7227 102.222 25.7227H100.906V27.9382H102.222C102.471 27.9382 102.721 27.89 102.91 27.7679C103.17 27.6104 103.336 27.3181 103.336 26.8309C103.336 26.3555 103.17 26.0641 102.921 25.9057ZM119.754 25.7227C120.003 25.7227 120.251 25.7718 120.452 25.9057C120.702 26.0641 120.868 26.3555 120.868 26.8309C120.868 27.3181 120.702 27.6104 120.441 27.7679C120.251 27.89 120.003 27.9382 119.754 27.9382H118.438V25.7227H119.754ZM140.561 25.7344C139.304 25.7344 138.402 26.6842 138.402 27.9991C138.402 29.3141 139.304 30.2511 140.561 30.2511C141.818 30.2511 142.707 29.3141 142.708 27.9991C142.708 26.6842 141.818 25.7344 140.561 25.7344ZM163.723 28.923L164.471 26.4023L165.193 28.923H163.723ZM172.403 25.6602C172.154 25.6602 171.893 25.7203 171.704 25.8669C171.49 26.0253 171.371 26.2812 171.371 26.6464C171.371 27.0234 171.514 27.2911 171.739 27.4495C171.929 27.5716 172.177 27.6317 172.426 27.6317H173.98V25.6602H172.403ZM76.6399 40.6709C76.6399 39.356 77.5409 38.4062 78.7976 38.4062C80.0551 38.4062 80.9437 39.356 80.9437 40.6709C80.9437 41.9859 80.0542 42.9229 78.7976 42.9229C77.5409 42.9229 76.6399 41.9859 76.6399 40.6709ZM107.439 39.0625L106.691 41.5831H108.162L107.439 39.0625ZM133.188 38.527C133.377 38.3804 133.638 38.3203 133.888 38.3203H135.464V40.2918H133.91C133.662 40.2918 133.412 40.2317 133.224 40.1097C132.998 39.9513 132.855 39.6835 132.855 39.3065C132.855 38.9414 132.973 38.6855 133.188 38.527Z" fill="white"></path>
</mask>
<g mask="url(#mask3_1402:2395)">
</g>
</svg>