<?xml version="1.0" encoding="UTF-8"?>
<!DOCTYPE svg PUBLIC "-//W3C//DTD SVG 1.1//EN" "http://www.w3.org/Graphics/SVG/1.1/DTD/svg11.dtd">
<!-- Creator: CorelDRAW -->
<svg xmlns="http://www.w3.org/2000/svg" xml:space="preserve" width="302px" height="66px" version="1.1" style="shape-rendering:geometricPrecision; text-rendering:geometricPrecision; image-rendering:optimizeQuality; fill-rule:evenodd; clip-rule:evenodd"
viewBox="0 0 302 66.12"
 xmlns:xlink="http://www.w3.org/1999/xlink"
 xmlns:xodm="http://www.corel.com/coreldraw/odm/2003">
 <defs>
  <style type="text/css">
   <![CDATA[
    .fil0 {fill:#00ACEC}
   ]]>
  </style>
 </defs>
 <g id="Слой_x0020_1">
  <metadata id="CorelCorpID_0Corel-Layer"/>
  <path class="fil0" d="M6.92 39.28l0 -6.95 1.95 0c0.72,0 1.2,-0.15 1.44,-0.46 0.25,-0.31 0.37,-0.89 0.37,-1.74l0 -20.86 -1.81 0c-0.76,0 -1.34,0.06 -1.71,0.19 -0.38,0.12 -0.62,0.3 -0.73,0.53 -0.1,0.24 -0.2,0.62 -0.28,1.15l-0.57 3.24 -5.58 0 0 -13.46 32.02 0 0.01 13.46 -5.59 0 -0.56 -3.24c-0.14,-0.79 -0.35,-1.3 -0.63,-1.53 -0.29,-0.23 -0.98,-0.35 -2.1,-0.35l-1.82 0 0 20.87c0,0.69 0.1,1.23 0.31,1.62 0.21,0.39 0.7,0.58 1.47,0.58l1.95 -0.01 0 6.96 -18.14 0 0 0 0 0zm29.87 0l0 -7 1.68 0c0.91,0 1.47,-0.17 1.69,-0.5 0.22,-0.34 0.33,-0.91 0.33,-1.69l0 -19.96c0,-0.78 -0.11,-1.34 -0.32,-1.68 -0.22,-0.34 -0.77,-0.51 -1.65,-0.51l-1.73 0 0 -7.02 30.65 0 0 12.34 -7.68 0c-0.1,-0.8 -0.24,-1.61 -0.4,-2.41 -0.15,-0.68 -0.41,-1.12 -0.76,-1.31 -0.36,-0.19 -1.14,-0.29 -2.33,-0.29l-3.68 0 0 6.44 7.81 0 0 8.33 -7.81 0 0 6.94 3.39 0c1.29,0 2.19,-0.15 2.7,-0.43 0.51,-0.29 0.9,-0.82 1.18,-1.59 0.28,-0.71 0.45,-1.42 0.49,-2.13l7.74 0 -0.3 12.47 -31 0zm89.86 -9.94c-0.61,-1.69 -0.91,-4.14 -0.91,-7.35l0 -3.72c0,-3.02 0.27,-5.43 0.81,-7.23 0.54,-1.81 1.77,-2.71 3.69,-2.71 1.83,0 3.04,0.87 3.62,2.6 0.57,1.75 0.86,4.21 0.86,7.39l0 3.67c0,2.09 -0.11,3.83 -0.32,5.25 -0.22,1.41 -0.65,2.54 -1.32,3.38 -0.66,0.84 -1.61,1.26 -2.84,1.26 -1.79,0 -2.99,-0.85 -3.59,-2.54l0 0zm0.31 -29.08c-1.2,0.18 -2.48,0.51 -3.85,0.99 -1.36,0.48 -2.73,1.2 -4.1,2.15 -1.42,0.99 -2.68,2.21 -3.72,3.6 -0.99,1.31 -1.81,2.75 -2.43,4.26 -0.59,1.44 -1.04,2.95 -1.31,4.48 -0.27,1.47 -0.4,2.93 -0.4,4.38 0,5.44 1.3,9.89 3.9,13.36 1.12,1.5 2.52,2.78 4.12,3.76 1.64,1 3.42,1.76 5.28,2.24 1.89,0.48 3.81,0.73 5.79,0.73 3.02,0 5.9,-0.57 8.63,-1.7 2.73,-1.13 4.93,-2.81 6.59,-5.03 2.56,-3.43 3.85,-7.88 3.85,-13.36 0,-4.85 -1.37,-9.22 -4.1,-13.12 -2.04,-2.71 -4.44,-4.55 -7.2,-5.53 -2.76,-0.98 -5.35,-1.47 -7.77,-1.47 -0.99,0 -2.09,0.09 -3.28,0.26l0 0zm25.51 39.02l0 -7.02 1.63 0c0.81,0 1.36,-0.15 1.64,-0.46 0.28,-0.31 0.42,-0.89 0.42,-1.74l0 -19.98c0,-0.86 -0.14,-1.44 -0.42,-1.74 -0.28,-0.31 -0.83,-0.46 -1.64,-0.46l-1.63 0 0 -6.96 21.9 0 0 6.96 -2.12 0c-1.15,0 -1.73,0.4 -1.73,1.21l0 21.84 1.39 0c0.31,0 0.62,0.01 0.95,0.04 0.32,0.02 0.56,0.03 0.71,0.03 0.99,0 1.71,-0.31 2.16,-0.93 0.44,-0.61 0.84,-2.03 1.2,-4.24l7.59 0 0 13.45 -32.05 0 0 0zm51.17 -28.5l3.1 10.76 -6.94 0 3.56 -10.76 0.28 0zm-9.37 -2.9l2.14 0c0.87,0 1.31,0.28 1.31,0.83 0,0.26 -0.06,0.54 -0.19,0.82 -0.02,0.05 -0.03,0.11 -0.05,0.16 -0.02,0.09 -0.06,0.18 -0.1,0.26 -0.02,0.11 -0.05,0.21 -0.08,0.32 -0.04,0.09 -0.05,0.17 -0.07,0.23l-6.07 18.42c-0.43,1.35 -0.85,2.26 -1.23,2.72 -0.39,0.46 -1.13,0.69 -2.2,0.69l-0.89 0 0 6.96 12.33 0 0 -6.96 -0.6 0c-0.55,0 -0.94,-0.22 -1.16,-0.66 -0.21,-0.45 -0.34,-0.82 -0.36,-1.12l0.14 -0.68 11.98 0c0.26,0.72 0.4,1.25 0.4,1.56 0,0.6 -0.51,0.9 -1.53,0.9l-1.43 0 0 6.96 20.23 0 0 -6.96 -0.84 0c-0.64,0 -1.15,-0.13 -1.53,-0.39 -0.36,-0.26 -0.65,-0.62 -0.82,-1.03 -0.23,-0.61 -0.43,-1.24 -0.59,-1.88l-8.19 -28.1 -20.61 0 0 6.95 0.01 0zm-103.38 12.02l0 6.96 1.09 0c1.01,0 1.66,0.16 1.92,0.49 0.26,0.34 0.39,-0.17 0.39,0.64l0 0.28c0,0.85 -0.47,1.48 -1.4,1.9 -0.94,0.43 -1.54,0.86 -2.95,0.86 -1.38,0 -2.73,-0.58 -3.5,-1.2 -1,-0.8 -0.86,-0.84 -1.6,-2.4 -0.74,-1.55 -1.2,-3.86 -1.2,-7.11 0,-3.57 0.41,-4.74 0.84,-6.45 0.42,-1.71 1.48,-2.81 2.16,-3.26 0.68,-0.46 1.26,-0.8 2.4,-0.8 3.24,0 4.78,0.54 4.96,4.57l13.61 0 0.02 -13.98 -10.84 0 0 2.47c-1.33,-2.39 -4.79,-2.87 -7.58,-2.87 -6.22,0 -11.08,2.34 -14.55,7 -0.88,1.21 -1.62,2.52 -2.21,3.9 -0.63,1.47 -1.11,2.99 -1.44,4.57 -0.32,1.58 -0.48,3.15 -0.48,4.71 0,5.63 1.28,10.13 3.84,13.51 1.13,1.51 2.56,2.78 4.19,3.73 1.66,0.97 3.47,1.68 5.45,2.12 1.97,0.45 4.05,0.67 6.23,0.67 2.15,0 3.99,-0.29 5.51,-0.85 1.51,-0.57 3.03,-1.57 4.56,-2.98l0.29 0 0 2.91 7.06 0 0 -19.39 -16.77 0 0 0 0 0zm135.75 -17.4l0 2.11 1.54 0c0.41,0 0.72,-0.12 0.92,-0.35 0.16,-0.2 0.25,-0.46 0.25,-0.72 0,-0.01 0,-0.01 0,-0.02l0 -0.07c0,-0.07 -0.01,-0.13 -0.02,-0.19 -0.03,-0.19 -0.13,-0.35 -0.26,-0.48 -0.18,-0.18 -0.45,-0.27 -0.81,-0.27l-1.62 0 0 -0.01zm-0.73 -0.64l2.18 0c0.64,0 1.12,0.14 1.45,0.41 0.17,0.14 0.31,0.31 0.41,0.51 0.09,0.21 0.15,0.44 0.15,0.7l0 0.08c0,0.32 -0.11,0.62 -0.29,0.88 -0.2,0.29 -0.49,0.5 -0.83,0.6l1.19 2.75 -0.78 0 -1.12 -2.58 -1.62 0 0 2.58 -0.74 0 0 -5.93 0 0z"/>
  <path class="fil0" d="M232.24 4.96c0,2.38 -1.93,4.32 -4.32,4.32 -2.39,0 -4.32,-1.93 -4.33,-4.32 0.01,-2.39 1.94,-4.32 4.33,-4.33 2.39,0.01 4.32,1.94 4.32,4.33l0 0zm-4.32 -4.86c-2.68,0 -4.86,2.17 -4.86,4.86 0,2.69 2.18,4.86 4.86,4.86 2.68,0 4.87,-2.18 4.87,-4.86 -0.01,-2.69 -2.18,-4.86 -4.87,-4.86l0 0zm12.42 20.48l2.69 -3.06c1.46,-2.44 4.28,-4.27 5.62,-7.21 2.81,-2.56 3.91,-5.01 6.72,-7.09l0.74 0 5.62 7.46 0.85 0 6.77 12.21 0.02 -22.74c0.02,-0.04 -29.51,0.13 -29.63,0l0.03 22.35 0.31 -0.99c0,0.01 -0.1,-0.44 0.26,-0.93l0 0zm28.27 8.5l-8.07 -13.47 -1.83 0c-0.86,-0.12 -0.98,-0.98 -1.47,-1.47l-1.59 0c-0.61,-0.73 -2.2,0.49 -2.81,-0.73 0,-0.12 -0.25,-0.61 -0.61,-0.61 -1.47,0.37 -1.84,1.83 -3.3,2.81 -3.43,4.28 -7.23,9.03 -8.81,12.39 -0.16,0.33 -0.41,1 -0.28,1l15.44 0.05 13.33 0.03 0 0zm-26.64 33.68c1.11,0.1 5.74,-0.82 8.99,-2.8l2.18 -1.24 12.41 -8.99c0,0 0.31,0.3 0.31,0.61 -3.72,5.59 -9,8.69 -14.58,12.1 0,0 -0.31,0.34 0,0.32 6.64,-0.62 14.27,-7.76 14.27,-7.76 0,0 0.31,0 0.31,0.31l-5.27 7.52 8.69 0 0 -31.32 -29.39 0 0 23.47c0,0 3.05,-0.95 5.19,-1.53 2.95,-0.8 4.76,-1.53 8.07,-3.05 3.41,-1.56 4.63,-2.12 8.68,-5.95 1.45,-1.36 2.48,-4.03 2.18,-6.21 -0.93,-1.24 -2.8,-1.55 -4.35,-1.55 -2.17,0.32 -4.34,0.94 -5.28,3.11l0 1.24 0.77 0.24c4.24,0 3.89,-1.17 4.51,-2.1 0,-0.31 -0.31,-0.31 -0.31,-0.93 0,0 0.31,-0.31 0.93,-0.62 0.62,0.31 1.55,0.62 1.55,1.55 0,1.55 -1.86,2.48 -3.1,3.1 -2.17,0.93 -5.28,2.17 -8.38,1.55 -0.62,-0.62 -1.24,-1.24 -1.24,-2.17 0.31,-1.86 -0.2,-2.25 1.86,-4.03l2.17 -1.25c6.19,-2.56 9.93,-2.79 13.97,0.31 1.24,1.87 1.24,5.28 0,7.14 -6.52,5.58 -13.66,9.62 -20.48,15.51 -1.24,0.93 -3.11,1.86 -4.35,2.79 -0.31,0.63 -0.31,0.31 -0.31,0.63l0 0zm4.65 -25.45l1.55 0c0.62,0 0.31,-0.62 0.62,-0.93l4.04 -1.86c0.31,0 0.31,-0.31 0,-0.62 -0.62,-0.93 -2.49,-0.93 -3.72,0 -0.94,0.62 -2.18,0.93 -2.49,1.55l0 1.86 0 0zm-2.79 9.93l0.62 0c0.31,0 0,0 0.31,-0.31l0 -1.24c0,0 0,-0.31 -0.31,-0.31 -0.62,0.31 -0.93,1.24 -0.62,1.86zm10.86 0l0.93 0c0.93,0 0,-0.31 0,-0.62 -0.31,-0.31 -0.93,-0.62 -0.93,-0.31 -0.31,0 -0.31,0.62 0,0.93l0 0zm-10.55 -10.86c0.31,0 0.31,-0.31 0.62,-0.93 0,-0.31 -0.31,-0.62 -0.62,-0.62l-0.93 0.62c-0.31,0.62 0.62,0.62 0.62,0.93l0.31 0zm39.4 26.06c-0.3,-2.48 -0.61,-4.65 -0.3,-7.44 0.3,-0.62 0.3,-1.25 0.93,-1.87 -0.17,-0.13 -0.26,-0.33 -0.26,-0.54 0,-0.34 0.24,-0.63 0.57,-0.7l2.17 -3.41c1.55,-2.48 3.73,-4.03 6.83,-5.27 2.79,-0.62 8.52,-0.25 8.52,-0.25l0 -11.36 -29.86 -0.09 0 31.2 11.4 -0.27 0 0zm2.18 -20.47l0.31 0c0,-1.25 -0.31,-3.73 -1.55,-4.35 -1.24,-0.62 -2.48,-1.24 -4.34,-1.55l-0.62 0c-0.63,1.25 0.31,2.48 0.62,3.42l5.58 2.48 0 0zm-4.03 10.55l0.31 0c0,0 0.31,-0.32 0.31,-0.62 -0.31,-0.31 -0.62,-0.94 -1.24,-1.56l-2.18 0c-0.62,0.31 0,0.62 0,1.25l2.8 0.93 0 0zm-4.35 5.89c0.62,0 1.55,0 2.18,-0.31l0 -0.62c-0.32,-0.62 -1.25,-1.55 -1.87,-1.86l-2.17 0.62c-0.31,0 -0.31,0 -0.31,0.62 0.62,0.62 1.24,1.24 2.17,1.55l0 0zm11.48 -18.3l0.62 0 -0.62 -3.42 -3.41 -1.55c-0.93,1.24 0.31,2.18 0.62,3.1l2.79 1.87zm10.55 0l0.32 0 -0.32 -2.8 -3.1 -1.86c-0.31,0.62 0,1.86 0.31,2.79l2.48 1.87 0.31 0zm-17.37 5.89c0,-0.31 0,-0.62 -0.31,-0.93 -0.62,0.31 0,0.93 0,0.93l0.31 0zm19.88 -17l0 -3.44c0,0 -5.19,-5.19 -8.85,-3.23 -2.45,1.95 -5.75,3.18 -8.8,3.05 -3.92,0.25 -7.46,-2.93 -11.25,-1.1 -0.37,0.25 -0.8,0.35 -0.8,0.35l0 4.37 29.7 0 0 0zm-16.67 -7.3c6.35,-0.85 9.88,-6.26 15.99,-1.25 0.37,0 0.68,0.03 0.68,0.03l-0.01 -1.97c0,0 -2.37,-3.03 -8.12,-3.07 -5.75,-0.03 -8.68,4.65 -13.57,2.81 -1.95,-1.09 -4.28,-1.09 -5.86,-0.24 -0.86,0.49 -1.34,0.73 -1.84,1.1 -0.48,0.24 -0.36,0.98 -0.36,1.59 2.44,0.24 3.14,-1.43 8.68,0.85 0.99,0.41 1.45,0.28 2.55,0.44l1.86 -0.29 0 0zm10.93 -8.79c1.84,0.24 3.96,0.92 5.67,0.92 0.07,0 0.14,-2.23 0.07,-2.25 -3.87,-1.48 -4.07,-1.36 -5.36,-1.54 -5.52,-0.77 -10.77,4.82 -16.15,1.77 -2.56,-0.86 -5.62,-0.98 -7.7,0.36 -0.12,0.12 -0.49,0.09 -0.49,0.37l0 2.58c0,0 1.69,-0.88 4.28,-0.87 2.59,0.01 2.77,0.53 6.36,1.1 3.59,0.57 8.55,-3.54 13.32,-2.44l0 0zm-12.01 -3.52c4.89,0 6.94,-5.23 12.57,-2.17 1.34,0.85 4.27,1.53 5.26,0.31l0 -7.4 -29.78 0 0 7.12c3.92,-1.1 6.82,-0.37 10.24,1.71l1.71 0.43zm-274.34 53.6l-3.19 0 0 -13.84 9.04 0 0 2.69 -5.85 0 0 11.15zm18.09 -13.84l3.19 0 0 13.84 -3.19 0 0 -9.03 -5.39 9.03 -3.19 0 0 -13.84 3.19 0 0 8.94 5.39 -8.94 0 0zm11.29 7.83l2.64 0c0.78,0 2.32,0.1 2.32,1.76 0,1.31 -1.12,1.56 -2.37,1.56l-2.59 0 0 -3.32zm0 -5.14l7.32 0 0 -2.69 -10.51 0 0 13.84 6.45 0c3.13,0 5.14,-1.34 5.14,-4.17 0,-4.43 -4.01,-4.53 -5.14,-4.53l-3.26 0 0 -2.45zm20.46 -2.69l3.76 0 -5.44 6.33 5.74 7.51 -3.9 0 -4.79 -6.76 -0.04 0 0 6.76 -3.19 0 0 -13.84 3.19 0 0 5.81 0.04 0 4.63 -5.81zm10.54 8.9l1.78 -5.28 1.74 5.28 -3.52 0zm0.15 -8.9l-5.06 13.84 3.36 0 0.85 -2.59 4.91 0 0.87 2.59 3.39 0 -5.09 -13.84 -3.23 0zm19.24 2.69l0 3.68 -2.86 0c-1.9,0 -2.21,-1.11 -2.21,-1.88 0,-0.81 0.41,-1.8 2.09,-1.8l2.98 0zm0 6.37l0 4.78 3.19 0 0 -13.84 -6.87 0c-1.5,0 -4.83,0.45 -4.83,4.45 0,3.08 2.03,4.15 3.56,4.35l-3.19 5.04 3.79 0 2.65 -4.78 1.7 0zm17.2 -9.06l0 3.34c0,1.37 0.33,2.34 2.37,2.34 0.58,0 1.51,-0.07 2.23,-0.16l0 -5.52 3.18 0 0 13.84 -3.18 0 0 -5.63c-1.02,0.09 -2.05,0.14 -3.06,0.15 -3.9,0 -4.74,-1.58 -4.74,-4.13l0 -4.23 3.2 0zm22.5 5.49l0 2.56 -6.61 0 0 3.1 7.69 0 0 2.69 -10.88 0 0 -13.84 10.69 0 0 2.69 -7.5 0 0 2.8 6.61 0zm8.11 -2.8l2.5 0c0.71,0 2.28,-0.08 2.28,1.8 0,1.35 -0.77,1.9 -2.28,1.9l-2.5 0 0 -3.7 0 0zm-3.19 -2.69l0 13.84 3.19 0 0 -4.76 3.04 0c1.64,0 5.18,-0.28 5.18,-4.61 0,-3.42 -2.36,-4.47 -5.1,-4.47l-6.31 0zm25.13 5.49l0 2.56 -6.61 0 0 3.1 7.7 0 0 2.69 -10.89 0 0 -13.84 10.69 0 0 2.69 -7.5 0 0 2.8 6.61 0zm8.12 8.35l-3.19 0 0 -13.84 11.48 0 0 13.84 -3.19 0 0 -11.15 -5.1 0 0 11.15zm21.78 -13.84l3.19 0 0 13.84 -3.19 0 0 -9.03 -5.39 9.03 -3.19 0 0 -13.84 3.19 0 0 8.94 5.39 -8.94 0 0zm16.53 11.15l0 -11.15 3.18 0 0 11.15 1.92 0 -0.14 5.82 -2.8 0 0 -3.13 -10.59 0 0 -13.84 3.19 0 0 11.15 5.24 0zm12.04 -2.25l1.77 -5.28 1.75 5.28 -3.52 0zm0.15 -8.9l-5.06 13.84 3.36 0 0.85 -2.59 4.91 0 0.87 2.59 3.38 0 -5.08 -13.84 -3.23 0z"/>
 </g>
</svg>
