<svg width="18" height="14" viewBox="0 0 18 14" fill="none" xmlns="http://www.w3.org/2000/svg">
<path d="M13.4735 0.731668C13.4735 0.494437 13.2812 0.302124 13.044 0.302124H0.817917C0.580686 0.302124 0.388372 0.494438 0.388372 0.731669V6.57048C0.388372 6.80771 0.580686 7.00002 0.817917 7.00002H13.044C13.2812 7.00002 13.4735 6.80771 13.4735 6.57048V0.731668Z" fill="#FCD200"/>
<path d="M17.6116 7.42942C17.6116 7.19219 17.4193 6.99988 17.182 6.99988H4.95598C4.71875 6.99988 4.52643 7.19219 4.52643 7.42942V13.2682C4.52643 13.5055 4.71875 13.6978 4.95598 13.6978H17.182C17.4193 13.6978 17.6116 13.5055 17.6116 13.2682V7.42942Z" fill="#FCD200"/>
</svg>
